<?xml version="1.0" encoding="utf-8"?>
<!-- Generator: Adobe Illustrator 24.1.1, SVG Export Plug-In . SVG Version: 6.00 Build 0)  -->
<svg version="1.1" id="Layer_1" xmlns="http://www.w3.org/2000/svg" xmlns:xlink="http://www.w3.org/1999/xlink" x="0px" y="0px"
	 viewBox="0 0 588 712" style="enable-background:new 0 0 588 712;" xml:space="preserve">
<style type="text/css">
	.st0{fill:#28A951;}
	.st1{fill:#E13116;}
	.st2{enable-background:new    ;}
	.st3{fill:#FFE725;}
	.st4{fill:#FFFFFF;}
</style>
<rect x="0" class="st0" width="588" height="712"/>
<polygon class="st1" points="0,0 588,712 0,712 "/>
<g>
	<g class="st2">
		<path class="st3" d="M163.6,148.8h21.3v6.7h-14.3v14.7h12.5v6.7h-12.5v21h-7V148.8z"/>
		<path class="st3" d="M204,197.8l-2.3-10.5h-9l-2.3,10.5h-7l10.7-49h6.2l10.7,49H204z M197.1,162.4l-3.6,18.6h7.4L197.1,162.4z"/>
		<path class="st3" d="M215.9,148.8h7l9.7,27h0.3l9.2-27h7v49h-7v-30.7h-0.3l-7.4,22.1h-3.7l-7.4-22.1h-0.4v30.7h-7V148.8z"/>
		<path class="st3" d="M264.4,148.8v49h-7v-49H264.4z"/>
		<path class="st3" d="M279.8,148.8v42.4h14.8v6.7h-21.8v-49H279.8z"/>
		<path class="st3" d="M308.2,177.1v20.7h-7v-20.9L291,148.8h7.7l6.1,19.5h0.4l6-19.5h7.4L308.2,177.1z"/>
		<path class="st3" d="M339.7,148.8H361v6.7h-14.3v14.7h12.5v6.7h-12.5v21h-7V148.8z"/>
		<path class="st3" d="M374,148.8v37.2c0,3.4,1.6,5.7,4.7,5.7s4.7-2.3,4.7-5.7v-37.2h7v36.1c0,10.8-6.4,13.6-11.7,13.6
			c-5.3,0-11.7-2.8-11.7-13.6v-36.1H374z"/>
		<path class="st3" d="M405.8,148.8l11.7,30.8v-30.8h7v49h-7L405.8,167v30.8h-7v-49H405.8z"/>
	</g>
	<g class="st2">
		<path class="st4" d="M176.1,269.8c-1,1.8-2.3,2.7-3.4,3.3c-2,1.1-4.3,1.2-5.5,1.2c-2.5,0-5.5-0.6-7.8-3.5
			c-2.2-2.8-2.5-6.3-2.5-8.5v-24.8c0-2.9,0.1-6,2.3-9c2.8-3.9,7.2-4.6,9.9-4.6c3.6,0,6.7,1.2,8.7,3.2c1.9,1.9,3.6,5,3.6,9.6v2h-7
			v-2.5c0-1.2-0.1-2.7-1.4-4c-0.7-0.7-1.9-1.4-3.8-1.4c-1.8,0-3.1,0.8-3.9,1.8c-1.3,1.6-1.3,3.4-1.3,5.2v23c0,1.5,0.1,3.6,1.2,5
			c0.8,1.1,2.2,1.8,3.9,1.8c1.5,0,3.2-0.8,4.1-2c1.3-1.6,1.3-4,1.3-5.7v-6.6h-6v-6.3h13v26.7h-3.5L176.1,269.8z"/>
		<path class="st4" d="M198.7,224.6c3.6,0,8.8-0.2,12,3.9c1.6,2,2.6,4.9,2.6,8.5v3.7c0,3.2-1.1,6.1-2.6,7.8c-1,1.2-2.5,2-3.7,2.5
			l7.7,22.6h-7.3l-6.8-21.1h-4.1v21.1h-7v-49H198.7z M196.6,246.2h4c1.5,0,3-0.3,4.3-1.6c1.4-1.3,1.5-2.5,1.5-4.4v-3.5
			c0-1.9-0.7-3.6-1.6-4.5c-1.4-1.4-3.1-1.3-4.6-1.3h-3.6V246.2z"/>
		<path class="st4" d="M220.7,224.6h20.8v6.7h-13.8v14.4h12.2v6.3h-12.2v15h14v6.7h-21V224.6z"/>
		<path class="st4" d="M265.4,273.6l-2.3-10.5h-9l-2.3,10.5h-7l10.7-49h6.2l10.7,49H265.4z M258.5,238.3l-3.6,18.6h7.4L258.5,238.3z
			"/>
		<path class="st4" d="M295.1,224.6v6.7h-8.7v42.4h-7v-42.4h-8.7v-6.7H295.1z"/>
		<path class="st4" d="M317,224.6h21.3v6.7H324V246h12.5v6.7H324v21h-7V224.6z"/>
		<path class="st4" d="M342.6,237.5c0-3.7,0.3-7.3,3.6-10.4c2.1-2,5-3.2,8.6-3.2s6.5,1.2,8.6,3.2c3.4,3.2,3.6,6.7,3.6,10.4v23.2
			c0,3.7-0.3,7.3-3.6,10.4c-2.1,2-5,3.2-8.6,3.2s-6.5-1.2-8.6-3.2c-3.4-3.2-3.6-6.7-3.6-10.4V237.5z M360.1,236.4
			c0-1.5-0.1-2.9-1.5-4.3c-0.8-0.8-2-1.4-3.8-1.4s-3,0.6-3.8,1.4c-1.3,1.3-1.5,2.8-1.5,4.3v25.3c0,1.5,0.1,2.9,1.5,4.3
			c0.8,0.8,2,1.4,3.8,1.4s3-0.6,3.8-1.4c1.3-1.3,1.5-2.8,1.5-4.3V236.4z"/>
		<path class="st4" d="M374.9,237.5c0-3.7,0.3-7.3,3.6-10.4c2.1-2,5-3.2,8.6-3.2s6.5,1.2,8.6,3.2c3.4,3.2,3.6,6.7,3.6,10.4v23.2
			c0,3.7-0.3,7.3-3.6,10.4c-2.1,2-5,3.2-8.6,3.2s-6.5-1.2-8.6-3.2c-3.4-3.2-3.6-6.7-3.6-10.4V237.5z M392.4,236.4
			c0-1.5-0.1-2.9-1.5-4.3c-0.8-0.8-2-1.4-3.8-1.4s-3,0.6-3.8,1.4c-1.3,1.3-1.5,2.8-1.5,4.3v25.3c0,1.5,0.1,2.9,1.5,4.3
			c0.8,0.8,2,1.4,3.8,1.4s3-0.6,3.8-1.4c1.3-1.3,1.5-2.8,1.5-4.3V236.4z"/>
		<path class="st4" d="M417,224.6c2.9,0,7.1,0.1,10.2,2.9c3.6,3.3,3.8,8.5,3.8,10.6v21.6c0,3.4-0.4,6.9-3.2,10
			c-3.1,3.4-7.1,3.9-9.9,3.9h-10.4v-49H417z M414.5,266.8h3.2c1.5,0,3.3-0.2,4.7-1.7c1.5-1.6,1.6-4.1,1.6-5.7v-21.7
			c0-1.4-0.2-3.2-1.3-4.6c-1.3-1.6-2.8-1.6-4.6-1.6h-3.6V266.8z"/>
	</g>
	<g class="st2">
		<path class="st3" d="M223.2,300.5h7l9.7,27h0.3l9.2-27h7v49h-7v-30.7H249l-7.4,22.1h-3.7l-7.4-22.1h-0.4v30.7h-7V300.5z"/>
		<path class="st3" d="M271.7,300.5v37.2c0,3.4,1.6,5.7,4.7,5.7c3.1,0,4.7-2.3,4.7-5.7v-37.2h7v36.1c0,10.8-6.4,13.6-11.7,13.6
			s-11.7-2.8-11.7-13.6v-36.1H271.7z"/>
		<path class="st3" d="M312.7,312.7c0-1-0.1-3.1-1.2-4.5c-0.6-0.8-1.7-1.6-3.7-1.6c-1,0-2.3,0.2-3.4,1.3c-1.3,1.4-1.5,3.4-1.5,5
			c0,1.3,0.2,3.8,1.1,5.1c0.8,1.2,2.2,1.8,3.2,2.2l4.3,1.5c2.1,0.8,4.6,1.7,6.4,4.2c1.9,2.6,2.1,5.4,2.1,8.5v1.7
			c0,5-1.3,8.8-3.4,10.9c-1.8,1.9-5,3.2-9.1,3.2c-5,0-8.2-2-9.8-4.3c-2.2-3-2.2-7.6-2.2-8.3V336h7v1.3c0,1.1,0.1,3.1,1.1,4.3
			c1.2,1.5,2.9,1.6,3.9,1.6c2.7,0,3.9-1.1,4.4-1.8c1.1-1.3,1.1-3.4,1.1-4.8v-1.8c0-1.7-0.2-3.8-1.1-5c-0.9-1.3-2.6-1.9-3.4-2.2
			l-5.1-1.8c-2.5-0.9-5-2.2-6.4-5.5c-1-2.2-1-4.7-1-7.1v-1.4c0-4.1,1.6-7.1,3.6-9.1c2.3-2.2,5.3-3,8.5-3c7,0,11.7,4.6,11.7,12.7v1.6
			h-7V312.7z"/>
		<path class="st3" d="M334.3,300.5v49h-7v-49H334.3z"/>
		<path class="st3" d="M358.9,311.6c0-1-0.3-2.3-0.9-3.2c-0.3-0.5-1.4-1.8-3.6-1.8c-1.8,0-2.9,0.8-3.6,1.6c-1.1,1.4-1.2,3.2-1.2,4.8
			v24.2c0,1.6,0,3.1,0.9,4.3c0.5,0.7,1.6,1.8,3.6,1.8c1.5,0,3.1-0.6,3.9-1.7c0.4-0.5,1-1.6,1-4v-1.8h7v2c0,4.8-1.7,7.6-2.9,9
			c-1.5,1.6-4.3,3.3-9.2,3.3c-4.6,0-7.3-1.9-8.8-3.7c-2.5-2.9-2.5-6.3-2.5-8.8v-25.4c0-3.2,0.4-6.9,3.6-9.6c2.2-2,5.4-2.9,8-2.9
			c2.9,0,6.4,1.1,8.5,3.2c1.8,1.8,3.2,4.7,3.2,8.1v3.4h-6.8V311.6z"/>
	</g>
	<g class="st2">
		<path class="st4" d="M160.6,388.6c0-1-0.1-3.1-1.2-4.5c-0.6-0.8-1.7-1.6-3.7-1.6c-1,0-2.3,0.2-3.4,1.3c-1.3,1.4-1.5,3.4-1.5,5
			c0,1.3,0.2,3.8,1.1,5.1c0.8,1.2,2.2,1.8,3.2,2.2l4.3,1.5c2.1,0.8,4.6,1.7,6.4,4.2c1.9,2.6,2.1,5.4,2.1,8.5v1.7
			c0,5-1.3,8.8-3.4,10.9c-1.8,1.9-5,3.2-9.1,3.2c-5,0-8.2-2-9.8-4.3c-2.2-3-2.2-7.6-2.2-8.3v-1.6h7v1.3c0,1.1,0.1,3.1,1.1,4.3
			c1.2,1.5,2.9,1.6,3.9,1.6c2.7,0,3.9-1.1,4.4-1.8c1-1.3,1.1-3.4,1.1-4.8v-1.8c0-1.7-0.2-3.8-1.1-5c-0.9-1.3-2.6-1.9-3.4-2.2
			l-5.1-1.8c-2.5-0.9-5-2.2-6.4-5.5c-1-2.2-1.1-4.7-1.1-7.1v-1.4c0-4.1,1.6-7.1,3.6-9.1c2.3-2.2,5.3-3,8.5-3c7,0,11.7,4.6,11.7,12.7
			v1.6h-7V388.6z"/>
		<path class="st4" d="M174.9,389.2c0-3.7,0.3-7.3,3.6-10.4c2.1-2,5-3.2,8.6-3.2c3.6,0,6.5,1.2,8.6,3.2c3.4,3.2,3.6,6.7,3.6,10.4
			v23.2c0,3.7-0.3,7.3-3.6,10.4c-2.1,2-5,3.2-8.6,3.2c-3.6,0-6.5-1.2-8.6-3.2c-3.4-3.2-3.6-6.7-3.6-10.4V389.2z M192.4,388.1
			c0-1.5-0.1-2.9-1.5-4.3c-0.8-0.8-2-1.4-3.8-1.4c-1.8,0-3,0.6-3.8,1.4c-1.3,1.3-1.5,2.8-1.5,4.3v25.3c0,1.5,0.1,2.9,1.5,4.3
			c0.8,0.8,2,1.4,3.8,1.4c1.8,0,3-0.6,3.8-1.4c1.3-1.3,1.5-2.8,1.5-4.3V388.1z"/>
		<path class="st4" d="M207.6,376.3h21.3v6.7h-14.3v14.7h12.5v6.7h-12.5v21h-7V376.3z"/>
		<path class="st4" d="M256.3,376.3v6.7h-8.7v42.4h-7V383H232v-6.7H256.3z"/>
		<path class="st4" d="M287.7,376.3c2.9,0,7.1,0.1,10.2,2.9c3.6,3.3,3.8,8.5,3.8,10.6v21.6c0,3.4-0.4,6.9-3.2,10
			c-3.1,3.4-7.1,3.9-9.9,3.9h-10.4v-49H287.7z M285.3,418.4h3.2c1.5,0,3.3-0.2,4.7-1.7c1.5-1.6,1.6-4.1,1.6-5.7v-21.7
			c0-1.4-0.2-3.2-1.3-4.6c-1.3-1.6-2.8-1.6-4.6-1.6h-3.6V418.4z"/>
		<path class="st4" d="M319,376.3c3.6,0,8.8-0.2,12,3.9c1.6,2,2.6,4.9,2.6,8.5v3.7c0,3.2-1.1,6.1-2.6,7.8c-1.1,1.2-2.5,2-3.7,2.5
			l7.7,22.6h-7.3l-6.8-21.1h-4.1v21.1h-7v-49H319z M316.8,397.9h4c1.5,0,3-0.3,4.3-1.6c1.4-1.3,1.5-2.5,1.5-4.4v-3.5
			c0-1.9-0.7-3.6-1.6-4.5c-1.4-1.4-3.1-1.3-4.5-1.3h-3.6V397.9z"/>
		<path class="st4" d="M348,376.3v49h-7v-49H348z"/>
		<path class="st4" d="M363.4,376.3l11.7,30.8v-30.8h7v49h-7l-11.7-30.8v30.8h-7v-49H363.4z"/>
		<path class="st4" d="M397.5,376.3v23.6l11.1-23.6h7.4l-9.9,20.1l11.8,28.9h-7.6l-8.3-21.9l-4.3,7.6v14.4h-7v-49H397.5z"/>
		<path class="st4" d="M437.4,388.6c0-1-0.1-3.1-1.2-4.5c-0.6-0.8-1.7-1.6-3.7-1.6c-1,0-2.3,0.2-3.4,1.3c-1.3,1.4-1.5,3.4-1.5,5
			c0,1.3,0.2,3.8,1.1,5.1c0.8,1.2,2.2,1.8,3.2,2.2l4.3,1.5c2.1,0.8,4.6,1.7,6.4,4.2c1.9,2.6,2.1,5.4,2.1,8.5v1.7
			c0,5-1.3,8.8-3.4,10.9c-1.8,1.9-5,3.2-9.1,3.2c-5,0-8.2-2-9.8-4.3c-2.2-3-2.2-7.6-2.2-8.3v-1.6h7v1.3c0,1.1,0.1,3.1,1.1,4.3
			c1.2,1.5,2.9,1.6,3.8,1.6c2.7,0,3.9-1.1,4.4-1.8c1-1.3,1.1-3.4,1.1-4.8v-1.8c0-1.7-0.2-3.8-1.1-5c-0.9-1.3-2.6-1.9-3.4-2.2
			l-5.1-1.8c-2.5-0.9-5-2.2-6.4-5.5c-1-2.2-1-4.7-1-7.1v-1.4c0-4.1,1.6-7.1,3.6-9.1c2.3-2.2,5.3-3,8.5-3c7,0,11.7,4.6,11.7,12.7v1.6
			h-7V388.6z"/>
	</g>
	<g class="st2">
		<path class="st3" d="M208.7,501.1l-2.3-10.5h-9l-2.3,10.5h-7l10.7-49h6.2l10.7,49H208.7z M201.8,465.8l-3.6,18.6h7.4L201.8,465.8z
			"/>
		<path class="st3" d="M227.6,452.1l11.7,30.8v-30.8h7v49h-7l-11.7-30.8v30.8h-7v-49H227.6z"/>
		<path class="st3" d="M264.2,452.1c2.9,0,7.1,0.1,10.2,2.9c3.6,3.3,3.8,8.5,3.8,10.6v21.6c0,3.4-0.3,6.9-3.2,10
			c-3.1,3.4-7.1,3.9-9.9,3.9h-10.4v-49H264.2z M261.7,494.3h3.2c1.5,0,3.3-0.2,4.7-1.7c1.5-1.6,1.6-4.1,1.6-5.7v-21.7
			c0-1.4-0.2-3.2-1.3-4.6c-1.3-1.6-2.8-1.6-4.6-1.6h-3.6V494.3z"/>
		<path class="st3" d="M316.4,480.5v20.7h-7v-20.9l-10.3-28.1h7.7l6.1,19.5h0.4l6-19.5h7.4L316.4,480.5z"/>
		<path class="st3" d="M331.6,452.1h20.8v6.7h-13.8v14.4h12.2v6.3h-12.2v15h14v6.7h-21V452.1z"/>
		<path class="st3" d="M375.4,464.4c0-1-0.1-3.1-1.2-4.5c-0.6-0.8-1.7-1.6-3.7-1.6c-1,0-2.3,0.2-3.4,1.3c-1.3,1.4-1.5,3.4-1.5,5
			c0,1.3,0.2,3.8,1.1,5.1c0.8,1.2,2.2,1.8,3.2,2.2l4.3,1.5c2.1,0.8,4.6,1.7,6.4,4.2c1.9,2.6,2.1,5.4,2.1,8.5v1.7
			c0,5-1.3,8.8-3.4,10.9c-1.8,1.9-5,3.2-9.1,3.2c-5,0-8.2-2-9.8-4.3c-2.2-3-2.2-7.6-2.2-8.3v-1.6h7v1.3c0,1.1,0.1,3.1,1.1,4.3
			c1.2,1.5,2.9,1.6,3.9,1.6c2.7,0,3.8-1.1,4.4-1.8c1-1.3,1.1-3.4,1.1-4.8v-1.8c0-1.7-0.2-3.8-1.1-5c-0.9-1.3-2.6-1.9-3.4-2.2
			l-5.1-1.8c-2.5-0.9-5-2.2-6.4-5.5c-1-2.2-1-4.7-1-7.1v-1.4c0-4.1,1.6-7.1,3.6-9.1c2.3-2.2,5.3-3,8.5-3c7,0,11.7,4.6,11.7,12.7v1.6
			h-7V464.4z"/>
		<path class="st3" d="M397,493.4v7.7l-7.7,7v-14.7H397z"/>
	</g>
	<g class="st2">
		<path class="st3" d="M115.5,528v6.7h-8.7V577h-7v-42.4h-8.7V528H115.5z"/>
		<path class="st3" d="M119,540.9c0-3.7,0.3-7.3,3.6-10.4c2.1-2,5-3.2,8.6-3.2c3.6,0,6.5,1.2,8.6,3.2c3.4,3.2,3.6,6.7,3.6,10.4v23.2
			c0,3.7-0.3,7.3-3.6,10.4c-2.1,2-5,3.2-8.6,3.2c-3.6,0-6.5-1.2-8.6-3.2c-3.4-3.2-3.6-6.7-3.6-10.4V540.9z M136.5,539.8
			c0-1.5-0.1-2.9-1.5-4.3c-0.8-0.8-2-1.4-3.8-1.4c-1.8,0-3,0.6-3.8,1.4c-1.3,1.3-1.5,2.8-1.5,4.3v25.3c0,1.5,0.1,2.9,1.5,4.3
			c0.8,0.8,2,1.4,3.8,1.4c1.8,0,3-0.6,3.8-1.4c1.3-1.3,1.5-2.8,1.5-4.3V539.8z"/>
		<path class="st3" d="M158.7,528l11.7,30.8V528h7v49h-7l-11.7-30.8V577h-7v-49H158.7z"/>
		<path class="st3" d="M192.7,528l11.7,30.8V528h7v49h-7l-11.7-30.8V577h-7v-49H192.7z"/>
		<path class="st3" d="M219.8,528h20.8v6.7h-13.8v14.4H239v6.3h-12.2v15h14v6.7h-21V528z"/>
		<path class="st3" d="M263.7,540.2c0-1-0.1-3.1-1.2-4.5c-0.6-0.8-1.7-1.6-3.7-1.6c-1,0-2.3,0.2-3.4,1.3c-1.3,1.4-1.5,3.4-1.5,5
			c0,1.3,0.2,3.8,1.1,5.1c0.8,1.2,2.2,1.8,3.2,2.2l4.3,1.5c2.1,0.8,4.6,1.7,6.4,4.2c1.9,2.6,2.1,5.4,2.1,8.5v1.7
			c0,5-1.3,8.8-3.4,10.9c-1.8,1.9-5,3.2-9.1,3.2c-5,0-8.2-2-9.8-4.3c-2.2-3-2.2-7.6-2.2-8.3v-1.6h7v1.3c0,1.1,0.1,3.1,1.1,4.3
			c1.2,1.5,2.9,1.6,3.8,1.6c2.7,0,3.9-1.1,4.4-1.8c1-1.3,1.1-3.4,1.1-4.8v-1.8c0-1.7-0.2-3.8-1.1-5c-0.9-1.3-2.6-1.9-3.4-2.2
			l-5.1-1.8c-2.5-0.9-5-2.2-6.4-5.5c-1-2.2-1-4.7-1-7.1v-1.4c0-4.1,1.6-7.1,3.6-9.1c2.3-2.2,5.3-3,8.5-3c7,0,11.7,4.6,11.7,12.7v1.6
			h-7V540.2z"/>
		<path class="st3" d="M294.3,540.9c0-3.7,0.3-7.3,3.6-10.4c2.1-2,5-3.2,8.6-3.2s6.5,1.2,8.6,3.2c3.4,3.2,3.6,6.7,3.6,10.4v23.2
			c0,3.7-0.3,7.3-3.6,10.4c-2.1,2-5,3.2-8.6,3.2s-6.5-1.2-8.6-3.2c-3.4-3.2-3.6-6.7-3.6-10.4V540.9z M311.8,539.8
			c0-1.5-0.1-2.9-1.5-4.3c-0.8-0.8-2-1.4-3.8-1.4s-3,0.6-3.8,1.4c-1.3,1.3-1.5,2.8-1.5,4.3v25.3c0,1.5,0.1,2.9,1.5,4.3
			c0.8,0.8,2,1.4,3.8,1.4s3-0.6,3.8-1.4c1.3-1.3,1.5-2.8,1.5-4.3V539.8z"/>
		<path class="st3" d="M326.9,528h21.3v6.7h-14.3v14.7h12.5v6.7h-12.5v21h-7V528z"/>
		<path class="st3" d="M379.9,528c2.1,0,6.2,0.2,9.2,2.4c4.4,3.2,4.5,8.4,4.5,11.3c0,3.2-0.3,5.5-2.1,7.6c-0.9,1.1-2,1.8-2.7,2.2
			c1.9,0.8,2.7,2,3.4,3.1c1.4,2.5,1.4,3.8,1.4,6.2v3.7c0,2,0,7.1-4.2,10.2c-1.5,1.2-4.1,2.3-8.3,2.3h-10.6v-49H379.9z M377.5,548.3
			h3.4c2.4,0,3.8-1,4.5-1.8c0.8-1,1.3-2.7,1.3-4.2v-3c0-1.3-0.6-2.5-1.3-3.4c-0.8-0.8-2.2-1.6-4.6-1.6h-3.3V548.3z M377.5,570.7h3.2
			c1,0,3.3-0.1,4.8-2.2c1.2-1.6,1.3-4.1,1.3-5v-2.3c0-2.4-0.3-4.1-1.9-5.4c-1.1-0.9-2.2-1.3-3.7-1.3h-3.6V570.7z"/>
		<path class="st3" d="M401.3,528h20.8v6.7h-13.8v14.4h12.2v6.3h-12.2v15h14v6.7h-21V528z"/>
		<path class="st3" d="M429,528h20.8v6.7H436v14.4h12.2v6.3H436v15h14v6.7h-21V528z"/>
		<path class="st3" d="M465.8,528c3.6,0,8.8-0.2,12,3.9c1.6,2,2.6,4.9,2.6,8.5v3.7c0,3.2-1.1,6.1-2.6,7.8c-1.1,1.2-2.5,2-3.7,2.5
			l7.7,22.6h-7.3l-6.8-21.1h-4.1V577h-7v-49H465.8z M463.6,549.6h4c1.5,0,3-0.3,4.3-1.6c1.4-1.3,1.5-2.5,1.5-4.4V540
			c0-1.9-0.7-3.6-1.6-4.5c-1.4-1.4-3.1-1.3-4.5-1.3h-3.6V549.6z"/>
		<path class="st3" d="M495.1,528l-1.6,36.8h-5.6l-1.2-36.8H495.1z M494.6,569.3v7.7h-7.7v-7.7H494.6z"/>
	</g>
</g>
</svg>
