<?xml version="1.0" encoding="utf-8"?>
<!-- Generator: Adobe Illustrator 24.1.1, SVG Export Plug-In . SVG Version: 6.00 Build 0)  -->
<svg version="1.1" id="Layer_1" xmlns="http://www.w3.org/2000/svg" xmlns:xlink="http://www.w3.org/1999/xlink" x="0px" y="0px"
	 viewBox="0 0 586.55 543.53" style="enable-background:new 0 0 586.55 543.53;" xml:space="preserve">
<style type="text/css">
	.st0{fill:#FFFFFF;}
</style>
<g>
	<g>
		<g>
			<path class="st0" d="M55.5,301.75l-23.39-72.46l9.97-3.22l25.72,34.06l0.2-0.07l0.85-42.64l10.08-3.25l23.39,72.46l-10.38,3.35
				l-14.22-44.07l-0.2,0.06l-0.23,34.46l-5.19,1.67l-20.23-27.86l-0.2,0.07l14.22,44.07L55.5,301.75z"/>
			<path class="st0" d="M97.16,228.13c-0.68-2.99-0.77-5.75-0.25-8.28c0.52-2.53,1.47-4.76,2.86-6.69c1.33-1.84,2.97-3.39,4.92-4.64
				c1.94-1.25,3.99-2.12,6.15-2.62c2.15-0.49,4.38-0.6,6.67-0.32c2.29,0.28,4.48,0.95,6.55,2.01c2.02,1.15,3.81,2.75,5.38,4.8
				c1.57,2.05,2.7,4.58,3.38,7.56l8.98,39.19c0.72,3.13,0.81,5.92,0.28,8.39c-0.53,2.46-1.47,4.61-2.8,6.46
				c-1.39,1.93-3.05,3.52-5,4.77c-1.94,1.25-3.99,2.12-6.15,2.62c-2.15,0.49-4.38,0.6-6.67,0.32c-2.3-0.28-4.45-0.99-6.47-2.14
				c-2.07-1.06-3.88-2.58-5.44-4.57c-1.55-1.98-2.69-4.54-3.4-7.67L97.16,228.13z M116.78,264.88c0.59,2.57,1.74,4.3,3.44,5.19
				c1.7,0.89,3.53,1.11,5.47,0.66c1.94-0.45,3.49-1.44,4.64-2.98c1.14-1.54,1.42-3.6,0.83-6.17l-8.98-39.19
				c-0.59-2.57-1.74-4.3-3.44-5.19c-1.7-0.89-3.53-1.11-5.47-0.66c-1.95,0.45-3.49,1.44-4.64,2.98c-1.15,1.54-1.42,3.6-0.83,6.17
				L116.78,264.88z"/>
			<path class="st0" d="M154.17,275.15l-12.38-75.13l10.76-1.77l10.6,64.37l21.31-3.51l1.77,10.76L154.17,275.15z"/>
			<path class="st0" d="M192.3,269.13l-8.36-75.68l32.31-3.57l1.13,10.2l-21.47,2.37l2.45,22.22l18.71-2.07l1.13,10.2l-18.71,2.07
				l2.45,22.22l21.47-2.37l1.2,10.84L192.3,269.13z"/>
			<path class="st0" d="M262.82,208.95l-10.89,0.62l-0.14-2.45c-0.14-2.49-0.85-4.61-2.13-6.36c-1.28-1.75-3.31-2.54-6.08-2.38
				c-1.49,0.09-2.69,0.44-3.58,1.06c-0.89,0.62-1.6,1.38-2.12,2.26c-0.52,0.96-0.85,2.03-0.99,3.22c-0.15,1.19-0.18,2.42-0.11,3.7
				c0.09,1.5,0.21,2.74,0.37,3.73c0.16,0.99,0.48,1.87,0.95,2.62c0.47,0.76,1.13,1.4,1.98,1.92c0.85,0.52,2,1.03,3.46,1.52
				l8.52,2.83c2.47,0.79,4.49,1.76,6.06,2.92c1.57,1.16,2.82,2.54,3.77,4.12c0.88,1.66,1.52,3.57,1.93,5.73
				c0.41,2.16,0.69,4.62,0.85,7.39c0.18,3.2,0.03,6.19-0.45,8.97c-0.48,2.78-1.38,5.17-2.7,7.17c-1.38,2.08-3.25,3.76-5.6,5.03
				c-2.35,1.28-5.28,2.02-8.76,2.22c-2.63,0.15-5.12-0.17-7.45-0.97c-2.33-0.79-4.36-1.96-6.09-3.51c-1.73-1.54-3.14-3.37-4.22-5.49
				c-1.09-2.12-1.7-4.45-1.85-7.02l-0.23-4.06l10.89-0.62l0.2,3.42c0.11,1.99,0.8,3.76,2.07,5.29c1.27,1.53,3.29,2.22,6.06,2.06
				c1.85-0.11,3.28-0.45,4.28-1.05c1-0.59,1.76-1.4,2.27-2.43c0.51-1.03,0.78-2.24,0.81-3.64c0.03-1.39-0.01-2.95-0.11-4.65
				c-0.11-1.99-0.28-3.63-0.49-4.9c-0.22-1.27-0.56-2.29-1.03-3.05c-0.54-0.75-1.24-1.36-2.09-1.81c-0.85-0.45-1.96-0.92-3.35-1.42
				l-7.98-2.76c-4.81-1.65-8.1-4.02-9.89-7.09c-1.78-3.07-2.81-7-3.08-11.77c-0.16-2.85,0.07-5.57,0.71-8.18
				c0.64-2.61,1.68-4.88,3.14-6.82c1.39-1.94,3.21-3.52,5.46-4.76c2.25-1.23,4.98-1.95,8.18-2.13c2.7-0.16,5.21,0.2,7.5,1.07
				c2.3,0.87,4.31,2.07,6.05,3.62c3.47,3.23,5.33,7.05,5.58,11.46L262.82,208.95z"/>
			<path class="st0" d="M273.12,262.98l-0.6-76.14l32.51-0.26l0.08,10.26l-21.6,0.17l0.18,22.35l18.82-0.15l0.08,10.27l-18.82,0.15
				l0.18,22.35l21.6-0.17l0.09,10.91L273.12,262.98z"/>
			<path class="st0" d="M321.93,263.34l1.37-32.16l-13.08-44.55l11.54,0.49l7.47,30.61l0.21,0.01l10.05-29.86l11.54,0.49
				l-16.84,43.27l-1.37,32.16L321.93,263.34z"/>
			<path class="st0" d="M371.59,266.51l9.38-75.56l15.81,1.96c3.46,0.43,6.35,1.33,8.66,2.69c2.31,1.36,4.13,3.03,5.47,4.99
				c1.34,1.96,2.2,4.14,2.59,6.52c0.39,2.38,0.43,4.81,0.12,7.29l-0.34,2.76c-0.26,2.05-0.63,3.76-1.12,5.14s-1.12,2.55-1.89,3.54
				c-1.45,1.83-3.5,3.3-6.15,4.41c2.4,1.52,4.05,3.52,4.97,6c0.91,2.48,1.12,5.74,0.62,9.78l-0.53,4.24
				c-0.83,6.65-3.07,11.55-6.73,14.68c-3.66,3.14-9.03,4.27-16.1,3.39L371.59,266.51z M386.76,232.83l-3,24.2l4.67,0.58
				c2.19,0.27,3.95,0.17,5.26-0.32c1.32-0.48,2.36-1.25,3.14-2.3c0.78-1.05,1.33-2.35,1.67-3.89c0.33-1.54,0.62-3.23,0.84-5.07
				c0.24-1.91,0.34-3.59,0.3-5.03c-0.04-1.44-0.31-2.7-0.83-3.77c-0.58-1.08-1.45-1.92-2.59-2.53c-1.15-0.61-2.71-1.04-4.69-1.28
				L386.76,232.83z M390.53,202.48l-2.58,20.8l4.88,0.61c3.61,0.45,6.14-0.15,7.61-1.8c1.46-1.65,2.41-4.21,2.84-7.68
				c0.42-3.4,0.05-6.03-1.12-7.9c-1.17-1.87-3.56-3.03-7.17-3.48L390.53,202.48z"/>
			<path class="st0" d="M415.67,272.32l13.77-74.88l31.97,5.88l-1.86,10.1l-21.25-3.91l-4.04,21.98l18.51,3.41l-1.86,10.1
				l-18.51-3.41l-4.04,21.98l21.25,3.91l-1.98,10.73L415.67,272.32z"/>
			<path class="st0" d="M453.47,279.53l18.18-73.94l31.57,7.76l-2.45,9.97l-20.98-5.16l-5.34,21.7l18.28,4.49l-2.45,9.97l-18.28-4.5
				l-5.34,21.7l20.98,5.16l-2.61,10.59L453.47,279.53z"/>
			<path class="st0" d="M490.6,288.85l23.42-72.45l16.69,5.39c12.21,3.95,16.02,13.01,11.44,27.19c-1.38,4.27-3.22,7.69-5.5,10.25
				c-2.29,2.56-5.39,4.21-9.31,4.97l0.5,36.69l-10.99-3.55l0.34-34.06l-6.21-2.01l-10,30.93L490.6,288.85z M521.24,229.53
				l-7.3,22.59l5.9,1.91c1.83,0.59,3.37,0.81,4.62,0.65c1.25-0.16,2.33-0.61,3.25-1.37c0.85-0.77,1.6-1.82,2.26-3.15
				c0.65-1.32,1.28-2.9,1.87-4.73c0.59-1.83,1.01-3.48,1.26-4.93c0.25-1.46,0.23-2.79-0.05-4.01c-0.68-2.32-2.81-4.06-6.4-5.22
				L521.24,229.53z"/>
		</g>
		<g>
			<path class="st0" d="M140.33,371.49v-76.14h32.51v10.27h-21.6v23.1h18.82v10.27h-18.82v32.51H140.33z"/>
			<path class="st0" d="M179.9,371.49v-76.14h32.51v10.27h-21.6v22.35h18.82v10.27h-18.82v22.35h21.6v10.91H179.9z"/>
			<path class="st0" d="M254.76,317.27h-10.91v-2.46c0-2.49-0.59-4.65-1.76-6.47c-1.18-1.82-3.15-2.73-5.93-2.73
				c-1.5,0-2.71,0.29-3.64,0.86c-0.93,0.57-1.68,1.28-2.25,2.14c-0.57,0.93-0.96,1.98-1.18,3.16c-0.21,1.18-0.32,2.41-0.32,3.69
				c0,1.5,0.05,2.75,0.16,3.74c0.11,1,0.37,1.89,0.8,2.67c0.43,0.79,1.05,1.46,1.87,2.03c0.82,0.57,1.94,1.14,3.37,1.71l8.34,3.31
				c2.42,0.93,4.38,2.02,5.88,3.26c1.5,1.25,2.67,2.69,3.53,4.33c0.78,1.71,1.32,3.65,1.6,5.83c0.28,2.18,0.43,4.65,0.43,7.43
				c0,3.21-0.32,6.19-0.96,8.93c-0.64,2.75-1.68,5.08-3.1,7.01c-1.5,2-3.46,3.57-5.88,4.7c-2.42,1.14-5.38,1.71-8.88,1.71
				c-2.64,0-5.1-0.46-7.38-1.39c-2.28-0.93-4.24-2.21-5.88-3.85c-1.64-1.64-2.94-3.55-3.9-5.72c-0.96-2.17-1.44-4.55-1.44-7.11
				v-4.06h10.91v3.42c0,2,0.59,3.8,1.76,5.4c1.18,1.6,3.15,2.41,5.93,2.41c1.85,0,3.3-0.27,4.33-0.8c1.03-0.53,1.83-1.3,2.41-2.3
				c0.57-1,0.91-2.19,1.02-3.58c0.11-1.39,0.16-2.94,0.16-4.65c0-1.99-0.07-3.64-0.21-4.92c-0.14-1.28-0.43-2.32-0.86-3.1
				c-0.5-0.78-1.16-1.43-1.98-1.92c-0.82-0.5-1.91-1.03-3.26-1.6l-7.81-3.21c-4.71-1.92-7.86-4.47-9.46-7.65
				c-1.6-3.17-2.41-7.15-2.41-11.92c0-2.85,0.39-5.56,1.18-8.13c0.78-2.57,1.96-4.77,3.53-6.63c1.5-1.85,3.4-3.33,5.72-4.44
				c2.32-1.11,5.08-1.66,8.29-1.66c2.71,0,5.19,0.5,7.43,1.5c2.25,1,4.19,2.32,5.83,3.96c3.28,3.42,4.92,7.34,4.92,11.76V317.27z"/>
			<path class="st0" d="M270.05,371.49v-65.88h-12.62v-10.27h36.15v10.27h-12.62v65.88H270.05z"/>
			<path class="st0" d="M298.7,371.49v-76.14h10.91v76.14H298.7z"/>
			<path class="st0" d="M357.2,295.35l-15.61,76.14h-9.62l-15.51-76.14h11.55l8.66,53.15h0.21l8.77-53.15H357.2z"/>
			<path class="st0" d="M354.85,371.49l17-76.14h9.09l17,76.14h-10.91l-3.21-16.36h-14.86l-3.21,16.36H354.85z M381.8,344.86
				l-5.35-27.59h-0.21l-5.35,27.59H381.8z"/>
			<path class="st0" d="M403.29,371.49v-76.14h10.91v65.23h21.6v10.91H403.29z"/>
		</g>
		<g>
			<path class="st0" d="M249.24,157.98v-54.54h-10.45v-8.5h29.93v8.5h-10.45v54.54H249.24z"/>
			<path class="st0" d="M272.7,157.98V94.94h9.03v27.01h11.16V94.94h9.03v63.05h-9.03v-28.07h-11.16v28.07H272.7z"/>
			<path class="st0" d="M310.42,157.98V94.94h26.92v8.5h-17.89v18.51h15.58v8.5h-15.58v18.51h17.89v9.03H310.42z"/>
		</g>
	</g>
	<g>
		<path class="st0" d="M186.47,154.34c-0.01,0.79-0.27,0.51-0.69,0.49c-3.16-0.14-4.56-2.79-6.15-4.71
			c-3.53-4.26-7.33-8.26-11.05-12.33c-3.6-3.93-7.26-7.82-10.23-12.31c-1.31-1.97-3.4-3.41-5.07-5.17
			c-5.93-6.24-11.75-12.59-17.22-19.26c-2.64-3.22-6.2-5.59-8.63-9.08c-3.62-5.22-8.32-9.55-12.42-14.38
			c-1.93-2.27-3.96-4.7-6.55-6.45c-1.69-1.14-2.86-2.64-3.33-4.75c-0.29-1.28-1.15-2.54-2.29-3.25c-1.03-0.64-1.74-1.42-2.32-2.42
			c-0.44-0.75-1.46-1.49-0.44-2.36c0.94-0.8,1.9-0.16,2.65,0.53c1.62,1.48,3.43,2.83,4.69,4.57c0.81,1.12,2.09,1.26,2.89,2.4
			c3.04,4.35,6.6,8.26,10.29,12.11c2.26,2.36,4.35,5.11,6.72,7.4c2.22,2.15,3.97,4.67,6.22,6.76c0.82,0.76,1.66,1.51,2.13,2.63
			c0.91,2.15,3.13,2.96,4.77,4.38c1.32,1.14,2.55,2.32,3.57,3.77c2.88,4.09,5.93,8.06,9.73,11.38c1.01,0.88,1.97,1.82,2.23,3.3
			c0.14,0.8,0.71,1.49,1.5,1.91c2.22,1.21,3.99,2.75,4.15,5.53c0.04,0.73,0.69,1.53,1.19,1.57c1.56,0.14,1.72,1.55,2.56,2.3
			c3.37,2.99,5.8,6.75,8.73,10.09c2.94,3.34,5.88,6.69,8.76,10.08C184.29,150.74,184.91,152.92,186.47,154.34z"/>
		<path class="st0" d="M564.75,349.52c-2.17-0.2-4.31-0.86-6.41-1.11c-4.73-0.56-8.95-3.39-13.89-2.81
			c-1.85,0.22-3.28-1.36-5.14-1.53c-3.33-0.3-6.25-2.27-9.61-2.54c-0.59-0.05-1.25-0.21-1.71-0.55c-2.25-1.66-5.13-1.63-7.52-2.83
			c-3.32-1.67-7.07-1.66-10.52-3.16c-3.27-1.42-6.94-2.3-10.52-3.17c-4.09-1-8.21-2.12-12.07-3.77c-2.23-0.95-4.54-0.91-6.76-1.61
			c-4.06-1.27-8.14-2.43-12.14-3.94c-2.91-1.1-6.03-1.81-9.04-2.74c-3.12-0.96-6.12-2.2-8.97-3.78c-0.17-0.1-0.55-0.31-0.33-0.38
			c0.68-0.22,0.71-1.29,1.57-1.14c1.86,0.32,3.84,0.38,5.55,1.08c5.17,2.11,10.59,3.26,15.9,4.82c4.89,1.43,9.77,3.02,14.59,4.73
			c3.7,1.32,7.69,2.4,11.75,2.98c2.71,0.39,5.48,1.4,8.18,2.29c2.96,0.98,5.83,2.22,9.01,2.36c0.42,0.02,0.97,0.23,1.2,0.54
			c0.81,1.07,1.49,2.38,2.56,0.23c1.49,0.76,3.35,0.37,4.74,1.57c0.63,0.54,1.45,2.19,2.25-0.12c0.2-0.57,2.23-0.21,2.15,0.71
			c-0.15,1.71,0.83,0.74,1.37,1.05c2.83,1.61,6.26,0.67,8.99,2.32c0.76,0.46,2.64-0.7,2.31,1.52c-0.04,0.26,0.79,0.23,1.25,0.18
			c2.49-0.28,4.86,0.15,7.05,1.37c1.47,0.82,3.11,0.63,4.66,0.98c3.19,0.72,6.56,0.85,9.21,3.18c0.77,0.68,1.87,0.2,2.76,0.15
			c1.51-0.08,2.65,0.5,3.77,1.33c0.54,0.4,1.28,0.76,0.83,1.63c-0.36,0.71-1.04,0.78-1.78,0.69
			C568.24,349.85,566.49,349.69,564.75,349.52z"/>
		<path class="st0" d="M88.03,387.52c1.34,0.27,2.44-0.46,3.43-1.06c2.51-1.53,5.02-3.11,7.28-4.98
			c5.32-4.37,11.49-7.28,17.44-10.57c0.53-0.29,1.04-0.45,1.44-0.98c0.82-1.1,1.87-1.69,3.33-2.08c1.56-0.41,2.96-1.75,4.21-2.93
			c1.17-1.1,1.81-0.23,2.63,0.31c1.08,0.71,0.68,1.85,0.16,2.35c-1.05,1.02-1.94,2.16-3.32,2.95c-3.9,2.22-8.18,3.91-11.35,7.28
			c-1.06,1.13-2.43,1.84-3.83,2.43c-4.19,1.77-8.24,3.77-11.79,6.66c-0.41,0.33-0.88,0.67-1.37,0.8c-3.59,0.96-6.09,3.72-9.18,5.49
			c-1.89,1.08-4,1.65-5.87,2.86c-1.53,0.98-2.98,1.98-4.29,3.23c-0.38,0.36-0.86,0.65-1.34,0.86c-4.26,1.85-7.84,4.86-11.88,6.99
			c-2.18,1.15-4.63,2.17-6.77,3.38c-2.42,1.38-4.79,3.13-7.21,4.46c-4.22,2.32-8.37,4.81-12.69,6.98c-2.54,1.27-4.95,3.06-7.42,4.62
			c-1.26,0.8-2.59,1.48-3.87,2.24c-0.88,0.52-1.52,0.13-1.88-0.6c-0.38-0.75-0.61-1.79,0.33-2.22c2.57-1.17,4.5-3.26,6.95-4.6
			c4.61-2.52,9.05-5.34,13.64-7.9c2.89-1.61,5.56-3.73,8.99-4.19c0.14-0.02,0.33-0.11,0.38-0.22c2.12-4.36,6.86-4.85,10.42-7.08
			c2.03-1.27,3.95-2.72,6.03-3.9c4.84-2.75,9.69-5.43,13.91-9.15C85.32,388.24,86.56,387.2,88.03,387.52z"/>
		<path class="st0" d="M268.93,400.86c-1.61,4.36-0.52,9.8-3.02,14.58c-1.32,2.52-1.64,5.39-1.67,8.21
			c-0.02,1.49-1.04,2.49-1.31,3.82c-1.02,5.15-1.66,10.42-3.22,15.4c-1.15,3.69-1.15,7.4-1.83,11.07c-0.6,3.24-2.19,6.27-2.93,9.53
			c-0.43,1.93-1.11,3.8-1.08,5.81c0.02,1.04-0.29,1.96-0.88,2.79c-0.85,1.2-1.18,2.35-1.01,3.98c0.15,1.51-0.28,3.46-1.83,4.58
			c-0.36,0.26-0.53,0.57-0.57,0.9c-0.26,1.93-0.67,3.88-0.63,5.81c0.02,1-0.7,1.42-0.89,2.21c-1.72,6.89-3.48,13.77-5.34,20.63
			c-0.51,1.88-1.41,3.66-2.15,5.48c-0.06,0.15-0.32,0.22-0.49,0.33c-0.02-0.96-1.62-0.88-1.33-2.09c0.39-1.67,0.54-3.4,1.04-5.03
			c1.52-5.03,2.5-10.17,3.62-15.3c1.05-4.83,1.99-9.71,3.92-14.33c0.59-1.42,0.56-3.1,0.88-4.65c1.92-9.23,3.49-18.55,6.77-27.44
			c0.49-1.34-0.52-2.51-0.1-3.99c2.09-7.32,4.12-14.67,5.76-22.09c0.71-3.22,1.77-6.44,1.54-9.86c-0.09-1.34,0.41-2.71,1.42-3.63
			c1.36-1.24,1.67-2.82,1.75-4.45c0.06-1.27,0.51-2.36,0.89-3.51c0.31-0.92,0.96-1.12,1.8-0.93
			C268.9,398.9,268.97,399.58,268.93,400.86z"/>
		<path class="st0" d="M445.19,173.85c-0.32-1.09,0.43-1.48,1.04-1.91c3.64-2.57,7.71-4.41,11.4-6.92c4.21-2.86,8.43-5.81,13-7.97
			c3.12-1.47,5.83-3.44,8.66-5.23c5.15-3.25,10.05-6.95,15.6-9.48c4.05-1.85,6.83-5.44,10.94-7.15c4.88-2.02,9.03-5.37,13.63-7.93
			c2.21-1.23,4.62-2.59,6.41-4.63c1.07-1.22,2.45-1.98,4.19-1.91c1.42,0.06,2.36-0.93,3.35-1.74c0.41-0.33,0.72-0.78,1.12-1.13
			c1.03-0.89,2.49-1.2,3.34-0.36c1.09,1.06-0.29,2.24-0.97,2.86c-1.89,1.73-3.99,3.24-6.09,4.73c-2.84,2.01-6.23,3.1-9.02,5.26
			c-1.32,1.02-2.9,1.82-3.57,3.37c-0.5,1.13-1.24,0.19-1.88,0.53c-1.76,0.95-3.1,2.41-4.76,3.48c-2.82,1.8-5.47,3.84-8.6,5.11
			c-0.48,0.19-0.99,0.46-1.32,0.83c-2.13,2.44-4.71,4.18-7.72,5.4c-3.44,1.4-6.69,3.16-9.53,5.61c-0.12,0.1-0.25,0.25-0.37,0.26
			c-3,0.1-4.72,2.57-7.09,3.83c-0.51,0.27-1.24,1.17-1.2-0.44c0.01-0.58-0.85-0.41-1.12-0.26c-0.93,0.5-1.82,1.11-2.14,2.21
			c-0.11,0.38,0.35,0.89-0.22,1.21c-0.66,0.36-0.66-0.41-0.96-0.54c-1-0.42-1.41,0.23-1.39,1.11c0.02,1-0.08,1.6-1.23,0.86
			c-1-0.65-1.57,0.36-2.19,0.73c-4.85,2.91-9.7,5.8-14.75,8.38c-1.82,0.93-3.62,1.82-5.52,2.58
			C444.89,175.12,445.26,174.3,445.19,173.85z"/>
		<path class="st0" d="M334.81,472.03c-0.9-3.87-0.65-7.99-2.27-11.71c-0.48-1.11-0.07-2.26-0.35-3.39
			c-1.35-5.45-0.9-11.33-2.66-16.51c-2.06-6.07-1.71-12.35-3.18-18.43c-0.99-4.11-1.7-8.42-2.27-12.68
			c-0.13-0.96-0.57-1.89-0.98-2.78c-0.63-1.38-0.63-2.81-0.19-4.17c0.5-1.52,0.52-2.95-0.07-4.4c-0.42-1.02-0.56-2.1-0.33-3.13
			c0.15-0.64-0.22-1.78,0.88-1.85c1.08-0.07,1.7,0.82,1.81,1.74c0.25,2.05,0.77,4.06,1.57,5.9c1.53,3.5,0.95,7.2,1.44,10.79
			c0.07,0.53,0.1,1.08,0.27,1.58c0.81,2.36,1.23,4.75,1.47,7.26c0.34,3.44,1.57,6.78,2.18,10.21c0.78,4.36,1.18,8.7,2.64,13.01
			c1.41,4.15,0.85,8.88,1.69,13.29c0.5,2.64,1.9,5.18,0.9,8c-0.18,0.52,0.22,1.02,0.57,1.44c0.95,1.14,0.71,2.46,0.47,3.7
			c-0.34,1.71-1.57,3.43,0.82,4.73c0.82,0.45-0.97,1.06-0.29,1.68c1.53,1.39,0.67,3.24,0.93,4.84c0.93,5.67,1.47,11.41,2.34,17.09
			c0.29,1.9,0.46,3.76,0.27,5.65c-0.06,0.63,0.47,1.35-0.28,1.88c-0.17-1.05-1.68-0.53-1.89-1.74c-0.3-1.76-1-3.43-1.16-5.25
			c-0.41-4.7-1.34-9.31-2.38-13.91C335.82,480.66,335.44,476.32,334.81,472.03z"/>
		<path class="st0" d="M85.49,117.89c1.86,0.59,3.61,2.25,5.74,3.16c5.1,2.16,8.3,6.98,13.39,9.34c2.38,1.1,4.5,3.26,6.82,4.82
			c3.87,2.61,7.96,4.92,11.3,8.26c0.67,0.67,1.56,0.49,2.33,0.8c2.44,0.99,4.44,2.53,6.35,4.3c2.79,2.58,6.16,4.42,9.11,6.72
			c2.55,1.98,5.32,3.67,7.78,5.76c0.38,0.32,0.76,0.64,0.7,1.3c-0.05,0.5,0.43,1.34,0.84,1.2c2.2-0.76,2.77,1.72,4.46,2.25
			c1.59,0.49,3.37,2.04,4.7,3.42c2.7,2.81,6.03,4.75,9.11,6.98c2.68,1.94,4.85,4.35,7.36,6.43c0.28,0.24,0.21,0.72,0.17,0.69
			c-0.93-0.65-1.55,0.92-2.48,0.3c-1.44-0.96-3.08-1.68-4.38-2.79c-4.15-3.56-8.82-6.34-13.29-9.43c-3.26-2.25-6.55-4.51-9.36-7.41
			c-1.21-1.25-3.13-1.78-4.62-2.79c-6.91-4.65-13.74-9.38-20.37-14.46c-2.33-1.78-5.3-3.05-7.71-4.99
			c-5.73-4.62-11.94-8.58-17.92-12.85c-0.78-0.56-1.76-0.87-2.66-1.26c-1.38-0.59-2.53-1.32-3.13-2.85
			c-0.51-1.28-1.53-2.32-2.89-2.7c-1.29-0.36-2.02-1.3-2.84-2.19c-0.33-0.36-0.82-0.73-0.51-1.39
			C83.83,117.81,84.45,117.87,85.49,117.89z"/>
		<path class="st0" d="M379.3,146.1c0.07-0.93-0.93-1.47-0.31-2.45c0.68-1.06,1.11-2.34,1.98-3.2c5.5-5.48,9.03-12.53,14.4-18.04
			c2.51-2.58,4.53-5.48,6.57-8.32c2.8-3.92,5.51-7.9,8.84-11.36c3.17-3.3,4.78-7.62,8.02-10.9c4.38-4.42,7.83-9.67,11.61-14.61
			c0.5-0.65,0.74-1.49,1.07-2.26c0.46-1.07,1.11-2.1,2.2-2.43c1.66-0.51,2.61-1.6,3.41-3.03c0.48-0.85,1.13-1.66,1.88-2.27
			c0.66-0.54,1.62-0.64,2.32,0.04c0.67,0.65,0.05,1.32-0.28,1.85c-2.58,4.08-4.75,8.46-8.57,11.64c-1.18,0.98-1.99,2.3-2.55,3.74
			c-0.51,1.32-1.72,2.06-2.56,3.1c-1.94,2.4-3.64,4.99-5.45,7.5c-2.21,3.07-5.06,5.64-6.47,9.34c-1.01,2.64-3.91,3.91-5.53,6.23
			c-1.12,1.6-2.54,2.99-3.39,4.79c-0.03,0.07-0.06,0.16-0.11,0.2c-2.62,1.59-3.61,4.58-5.69,6.61c-0.28,0.27-0.42,0.59-1.17,0.42
			c-0.93-0.22-1.9,1.18-1.62,1.97c0.4,1.12,0.44,1.28-0.73,1.03c-0.13-0.03-0.4,0.24-0.49,0.43c-2.89,5.42-7.88,9.19-11.24,14.27
			c-1.3,1.96-3.4,3.4-5.15,5.07C380.08,145.64,379.79,145.78,379.3,146.1z"/>
		<path class="st0" d="M214.29,390.72c-0.12,0.31-0.16,0.64-0.34,0.87c-2.58,3.2-3.54,7.46-7.06,10.09
			c-1.92,1.43-3.25,3.55-4.43,5.71c-1.45,2.67-3.98,4.54-5.56,7.17c-1.85,3.06-5,5.47-6.42,8.49c-2.47,5.27-7.06,8.6-10.1,13.22
			c-1.16,1.76-2.05,3.71-4.15,4.62c-1.41,0.61-0.4,2.66-1.96,3.37c-0.72,0.32-1.03,1.19-2.15,1.29c-0.8,0.07-2.11,0.84-1.45,2.34
			c0.06,0.13,0.15,0.36,0.12,0.39c-3.02,2.13-4.44,5.66-7.1,8.11c-2.85,2.62-4.58,6.17-7.41,8.84c-0.98,0.93-2,1.8-3.02,2.68
			c-0.35,0.3-0.86,1.2-1.07,0.76c-0.28-0.61-1.23-1.23-0.56-2.18c0.76-1.09,1.29-2.38,2.19-3.32c5.34-5.51,8.92-12.43,14.23-17.92
			c2.13-2.2,3.78-4.68,5.58-7.07c3.27-4.33,6.15-8.98,9.98-12.84c3.21-3.23,4.81-7.53,7.97-10.85c4.26-4.49,7.83-9.65,11.65-14.55
			c0.49-0.63,0.7-1.49,1.03-2.25c0.49-1.15,1.21-2.11,2.43-2.52c1.6-0.54,2.58-1.63,3.28-3.14c0.48-1.03,1.26-1.91,2.34-2.41
			C213.48,389.08,214.02,389.68,214.29,390.72z"/>
		<path class="st0" d="M60.41,356.09c-1.58-0.29-3.25-1.14-3.77,1.28c-1.71-1.29-2.16,1.75-3.8,1.09c-0.51-0.2-1.35,0.17-1.94,0.47
			c-3.22,1.67-6.89,2.01-10.15,3.59c-2.61,1.26-5.4,1.95-8.32,2.11c-0.46,0.03-1.19,0.53-1.24-0.15c-0.04-0.52-0.49-1.45,0.66-1.84
			c1.2-0.4,2.23-1.37,3.44-1.67c4.66-1.17,8.91-3.34,13.35-5.06c2.95-1.14,5.92-2.16,9.05-2.86c2.5-0.56,4.93-1.9,7.26-3.08
			c3.58-1.82,7.2-3.46,11.08-4.35c3.52-0.81,6.44-2.85,9.73-4.08c5.02-1.87,10.12-3.53,15.13-5.41c2.38-0.9,4.78-1.82,6.91-3.26
			c1.15-0.77,2.32-1.23,3.8-0.85c1.47,0.38,2.84-0.29,4.09-1.05c0.8-0.48,1.57-0.93,2.55-0.85c0.83,0.07,1.57,0.37,1.74,1.21
			c0.15,0.79-0.5,1.12-1.16,1.46c-2.82,1.43-5.49,3.34-8.46,4.25c-2.56,0.79-5.4,0.84-7.61,2.5c-2.27,1.71-5.13,1.51-7.53,2.82
			c-3.41,1.86-6.95,3.51-10.86,4.19c-0.66,0.12-1.26,0.79-1.81,1.29c-2.63,2.39-6.19,2.23-9.26,3.39c-1.64,0.62-3.31,1.13-4.84,2.03
			c-0.46,0.27-0.95,0.66-1.43,0.68c-1.91,0.08-3.71,0.33-5.19,1.75C61.51,356.02,60.84,355.99,60.41,356.09z"/>
		<path class="st0" d="M577.24,157.94c2.23,0.95,4.01-0.13,5.81-1.16c0.62-0.36,1.31-0.39,2.01-0.34c0.72,0.05,1.42,0.19,1.49,1.08
			c0.05,0.65-0.22,1.04-0.9,1.38c-4.15,2.09-8.01,4.85-12.83,5.36c-0.59,0.06-1.2,0.27-1.71,0.57c-4.39,2.54-9.41,3.6-13.93,5.9
			c-1.73,0.88-3.59,1.99-5.76,1.86c-1.05-0.07-1.52,0.97-2.18,1.48c-1.76,1.36-3.74,2.02-5.8,2.45c-3.06,0.62-5.95,1.64-8.7,3.11
			c-0.13,0.07-0.25,0.2-0.39,0.23c-2.14,0.49-4.34,0.69-6.2,2.15c-0.5,0.4-1.64,0.73-2.55-0.01c-0.51-0.41-1.62,0.06-1.67,0.27
			c-0.44,1.63-2.93,0.35-3.2,2.34c-0.04,0.3-1.9-0.13-2.87,0.37c-3.61,1.86-7.72,2.36-11.38,4.13c-2.26,1.1-4.77,1.41-7.23,1.78
			c-0.42,0.06-1.29,0.5-1.23-0.29c0.04-0.49-0.58-1.33,0.46-1.73c1.26-0.48,2.39-1.38,3.67-1.72c4.48-1.17,8.61-3.19,12.88-4.89
			c3.08-1.23,6.22-2.26,9.49-3.03c2.44-0.57,4.82-1.85,7.09-2.97c4.55-2.24,9.21-4.13,14.1-5.3c2.38-0.57,3.88-2.48,6.17-3.09
			c5.4-1.45,10.6-3.51,15.79-5.56c2.37-0.94,4.82-1.78,6.95-3.3C575.35,158.46,576.36,158.28,577.24,157.94z"/>
		<path class="st0" d="M36.75,145.57c1.66,0.69,3.21,1.24,4.85,1.6c4.62,1.01,8.22,4.26,12.54,6.08c4.01,1.69,8.17,3.43,12.11,5.5
			c2.59,1.36,5.03,3.67,8.48,3.38c1.4-0.12,2.65,1.11,3.8,1.97c2.22,1.66,4.68,2.8,7.23,3.77c1.62,0.62,3.37,1.01,4.43,2.62
			c0.29,0.44,0.9,0.72,1.43,0.56c1.16-0.36,2.25,0.31,2.61,0.97c1.1,2.04,3.08,2.53,4.91,3.15c5.51,1.86,10.09,5.57,15.48,7.67
			c2.05,0.8,3.58,2.47,5.34,3.75c0.23,0.17,0.44,0.67,0.23,0.6c-1.01-0.33-1.28,1.26-2.31,0.75c-1.07-0.53-2.39-0.78-3.29-1.37
			c-2.76-1.8-5.77-3.05-8.73-4.37c-3.43-1.53-6.85-3.04-10.15-4.87c-2.21-1.23-4.47-2.37-6.82-3.38c-6.28-2.7-12.5-5.5-18.5-8.86
			c-2.16-1.21-4.99-1.77-7.38-3.04c-4.11-2.18-8.31-4.21-12.4-6.41c-1.16-0.63-2.53-0.99-3.61-1.15c-3.94-0.59-6.1-4.14-9.65-5.24
			c-0.48-0.15-0.84-0.64-1.29-0.9c-0.63-0.36-1.22-0.76-1.06-1.58C35.18,145.73,36.32,146.23,36.75,145.57z"/>
		<path class="st0" d="M535.13,397.72c-1.31-0.15-1.94,1.27-3.3,0.59c-3.9-1.96-7.81-3.94-11.82-5.66
			c-3.53-1.52-7.02-3.12-10.39-4.96c-1.9-1.03-3.79-2.04-5.78-2.93c-6.38-2.82-12.95-5.27-18.82-9.16c-1.53-1.02-3.6-0.44-5.3-1.64
			c-4.68-3.3-10.11-5.31-15.19-7.9c-1.6-0.81-3.46-1.7-5.44-2.01c-1.63-0.26-3.33-0.66-4.14-2.59c-0.3-0.73-1.23-1.4-2.23-1.42
			c-0.94-0.01-1.55-0.53-2.19-1.08c-0.54-0.46-1.63-0.89-0.96-1.66c0.55-0.62,1.48-1.34,2.64-0.81c2.03,0.92,4.13,1.67,6.34,2.04
			c1.21,0.2,1.9,1.2,2.84,1.81c1.71,1.1,3.39,2.28,5.5,2.65c1.25,0.22,2.31,0.95,3.41,1.67c1.94,1.26,4.17,2.13,6.38,2.89
			c2.99,1.04,5.74,2.49,8.4,4.16c0.32,0.2,0.65,0.6,0.94,0.57c4.49-0.41,7.33,2.99,10.87,4.73c1.37,0.67,2.76,1.23,4.17,1.75
			c1.29,0.47,2.56,0.87,3.4,2.12c0.36,0.53,0.95,0.89,1.77,0.83c1.52-0.11,2.75,0.33,3.12,2.1c0.09,0.4,0.83,1.03,1.15,0.96
			c1.68-0.34,2.81,1.03,4.33,1.24c1.3,0.18,2.56,1.13,3.58,1.81c3.9,2.62,8.36,4.11,12.29,6.61c1.34,0.85,2.57,1.87,3.84,2.81
			C534.66,397.34,534.77,397.44,535.13,397.72z"/>
		<path class="st0" d="M214.61,141.58c0.05,1.03-0.08,2.03,1.38,2.4c1.11,0.28,1.54,1.82,1.96,2.71c1.31,2.76,3.1,5.23,4.54,7.9
			c1.79,3.31,4.35,6.2,5.25,9.99c0.12,0.48,0.77,0.82,0.39,1.44c-0.67-0.54-1.59,0.45-2.24-0.38c-0.76-0.99-1.78-1.84-2.29-2.94
			c-2.89-6.19-7.77-11.11-10.84-17.17c-1.47-2.91-3.23-5.66-5.23-8.18c-3.7-4.66-5.68-10.44-9.51-14.88
			c-4.72-5.47-7.38-12.17-11.69-17.82c-1.36-1.78-2.26-4.02-4.18-5.28c-2.1-1.37-1.11-3.9-2.43-5.58c-0.61-0.77-1.59-1.47-1.66-2.65
			c-0.05-0.78-0.73-1.75,0.41-2.19c0.84-0.32,1.64,0.05,2.22,0.79c2.6,3.3,5.78,6.2,7.07,10.41c0.24,0.77,0.75,1.55,1.36,2.08
			c2.53,2.18,3.21,5.59,5.46,7.97c3.48,3.69,4.89,8.9,8.97,12.24c1.94,1.59,2.11,4.47,3.53,6.56c0.89,1.32,1.65,2.75,2.7,3.94
			c0.89,1,1.68,1.92,1.61,3.38c-0.05,0.93,0.72,1.46,1.47,1.87C214.25,138.96,214.33,140.3,214.61,141.58z"/>
		<path class="st0" d="M414.45,444.19c0,0.02-0.05,0.41,0.12,0.56c2.18,2.05,1.86,5.59,4.42,7.4c1.37,0.97,1.27,2.7,2,4.01
			c0.98,1.77,2.59,3.21,2.98,5.3c0.11,0.6,1.12,1.39,0.24,1.68c-0.44,0.14-1.68,0.4-2.42-0.7c-1.25-1.89-2.48-3.76-3.49-5.81
			c-2.48-5.09-6.58-9.13-9.31-14.06c-1.34-2.42-2.85-4.7-4.41-6.97c-2.85-4.14-6.26-7.96-8.3-12.57c-1.68-3.8-5.07-6.26-6.83-10
			c-1.81-3.84-4.17-7.46-6.61-10.94c-1.36-1.94-2.53-4.08-4.37-5.68c-0.28-0.25-0.78-0.51-0.78-0.78c-0.08-3.04-1.79-5.3-3.44-7.63
			c-0.38-0.53-0.54-1.31,0.2-1.85c0.8-0.58,1.68-0.24,2.05,0.34c1.89,2.89,5.02,4.83,6.17,8.28c0.35,1.06,0.95,2.12,1.69,2.97
			c3.14,3.64,4.83,8.28,8.26,11.73c1.16,1.16,1.85,2.81,2.58,4.25c1.17,2.31,2.82,4.04,4.58,5.82c1.89,1.9,2.35,4.69,3.8,6.91
			c0.83,1.27,1.6,2.58,2.56,3.74c0.89,1.07,1.17,2.56,1.86,3.46c1.62,2.11,2.96,4.14,3.12,6.83c1.8-0.22,1.48,2.39,3.23,2.39
			C415.13,442.89,414.58,443.54,414.45,444.19z"/>
		<path class="st0" d="M216.99,57.56c-0.24,1.31-0.19,1.94,0.61,2.65c0.89,0.8,1.03,2.09,0.71,3.34c-0.23,0.9-0.9,2,0.82,2.2
			c0.11,0.01,0.21,0.15,0.32,0.23c-2.1,2.21,1.22,3.2,1.28,5.16c0.05,1.73,0.8,3.84,1.52,5.72c1.12,2.9,2.18,5.86,2.16,9.03
			c0,0.5,1,1.42-0.25,1.62c-0.89,0.14-1.63-0.06-2.12-1.2c-1.33-3.03-1.73-6.35-3.06-9.37c-1.53-3.51-2.28-7.29-3.54-10.9
			c-1.7-4.88-3.61-9.67-5.38-14.51c-0.55-1.49-0.68-3.13-1.19-4.64c-1.87-5.5-4.07-10.91-5.66-16.49c-1.08-3.8-2.24-7.48-4.29-10.87
			c-0.34-0.57-0.3-1.51-0.15-2.21c0.3-1.42,0.25-2.63-0.65-3.88c-0.59-0.82-1.05-2.12,0.15-2.82c1.45-0.85,2.1,0.21,2.61,1.47
			c1.38,3.36,3.53,6.45,3.55,10.28c0,0.28,0.17,0.59,0.33,0.84c1.88,2.93,2.1,6.48,3.6,9.54c1.38,2.81,2.23,5.79,2.84,8.86
			c0.09,0.46,0.62,0.82,0.91,1.24c1.06,1.51,1.84,3.06,1.95,5.02c0.15,2.49,1.03,4.88,2.13,7.13
			C216.67,55.96,216.99,56.92,216.99,57.56z"/>
		<path class="st0" d="M353.3,5.13c0.2,1.78-0.59,3.96-1.33,6.27c-1.45,4.53-2.67,9.16-2.9,13.99c-0.07,1.52-0.66,3.23-1.31,4.48
			c-1.52,2.94,0.2,6.2-1.47,9.02c-1.61,2.72-1.57,5.98-2.54,8.88c-0.59,1.76-0.57,3.75-1.44,5.24c-1.19,2.04-0.88,4.37-1.64,6.22
			c-2.19,5.35-2.73,11.17-5.21,16.37c-0.29,0.61-0.19,2.07-1.64,1.65c-1.33-0.38-1.19-1.38-0.93-2.4c0.63-2.55,1.27-5.09,1.9-7.64
			c0.92-3.75,1.32-7.62,2.59-11.3c2.59-7.49,3.69-15.38,5.42-23.06c1.65-7.32,4.24-14.46,5.01-21.95c0.25-2.41,0.35-4.59,2.23-6.32
			c0.64-0.59,0.44-1.4,0.46-2.15c0.04-1.33,0.47-2.6,2.05-2.45c1.5,0.14,0.88,1.49,0.9,2.4C353.46,3.1,353.38,3.78,353.3,5.13z"/>
		<path class="st0" d="M386.62,495.74c-0.39,1.06,0.32,2.12-0.42,2.2c-0.82,0.09-2.02,0.01-2.35-1.29
			c-1.77-6.85-5.01-13.22-6.46-20.21c-0.47-2.26-1.87-4.57-2.76-6.82c-1.31-3.33-2.58-6.8-3.05-10.44c-0.13-0.98-0.22-1.82-1.2-2.52
			c-1.17-0.83-1.2-2.42-1.5-3.74c-0.38-1.73-0.57-3.43-1.36-5.15c-1.36-2.98-2.12-6.24-3.07-9.4c-0.18-0.59-0.72-0.76-0.98-1.21
			c-0.55-0.99-1.36-2-0.79-3.15c0.65-1.3,0.29-2.21-0.45-3.33c-0.69-1.04-0.92-2.5,0.4-3.21c1.35-0.73,1.67,0.6,2.17,1.56
			c1.52,2.89,2.49,5.95,3.52,9.04c1.29,3.84,2.39,7.79,4.19,11.51c0.78,1.61,1.74,3.52,1.69,5.55c-0.01,0.3-0.04,0.73,0.14,0.89
			c3.9,3.58,2.12,9.39,5.22,13.27c-0.81,2.58,2.41,4.5,1.05,7.33c-0.58,1.21,1.41,2.05,1.75,3.5
			C383.64,485.5,385.24,490.8,386.62,495.74z"/>
		<path class="st0" d="M434.87,138.06c-0.61,0.06-0.93-0.28-1.21-0.65c-0.38-0.51-0.16-0.89,0.18-1.4c1.29-1.96,3.36-3.05,4.96-4.66
			c2.47-2.47,4.62-5.26,7.47-7.34c5.7-4.17,10.21-9.67,15.2-14.54c4.89-4.76,10.47-8.91,14.68-14.34c1.24-1.6,2.21-3.01,4.41-3.35
			c1.34-0.21,1.56-2.14,2.97-2.69c0.81-0.32,1.37-0.55,1.99,0.19c0.58,0.68,0.33,1.22-0.19,1.8c-2.06,2.33-3.13,5.57-6.4,6.81
			c-0.73,0.28-1.42,0.94-1.9,1.59c-2.7,3.62-6.25,6.42-9.25,9.75c-3.29,3.67-6.81,7.09-10.66,10.23c-1.38,1.12-3.6,1.84-4,4.16
			c-0.08,0.44-1.15,1.1-1.62,1c-1.63-0.35-2.04,0.85-2.81,1.75c-3.56,4.13-7.96,7.35-12.01,10.95
			C436.21,137.75,435.43,137.84,434.87,138.06z"/>
		<path class="st0" d="M296.7,444.53c-1.68,4.08-0.56,8.4-0.43,12.61c0.12,3.82-0.91,7.76,0.55,11.54c0.17,0.45,0.01,1.05-0.06,1.57
			c-0.37,2.63-0.28,5.29-0.46,7.89c-0.16,2.25,0.74,4.88-1.11,6.93c-0.93,1.03,0.25,2.03,0.21,3.13c-0.13,4.31-0.34,8.61-0.58,12.92
			c-0.06,1.14-0.27,2.28-0.88,3.27c-0.29,0.47,0.17,1.23-0.59,1.51c-0.31-0.87-1.59-0.74-1.74-1.89c-0.25-1.91,0.18-3.77,0.2-5.66
			c0.06-3.8-0.54-7.61,0.04-11.39c0.33-2.17,0.43-4.32,0.22-6.49c-0.45-4.58,0.47-9.22,0.07-13.68c-0.58-6.35,1.33-12.72-0.13-18.85
			c-0.76-3.21,1.51-5.68,0.65-8.65c-0.24-0.81,0.55-1.96,1.78-1.98c1.26-0.02,1.43,0.93,1.38,1.92
			C295.73,441,296.37,442.67,296.7,444.53z"/>
		<path class="st0" d="M440.03,410.13c1.5,1.12,3.73,1.98,4.61,3.59c1.86,3.41,5.03,5.47,7.47,8.24c0.75,0.85,1.48,1.8,2.41,2.53
			c3.69,2.93,6.42,6.79,9.7,10.13c0.88,0.89,1.55,2.13,2.58,3.01c0.24,0.2,0.72,0.56,0.4,0.94c-1.61,1.92,0.15,2.37,1.31,2.53
			c1.3,0.18,1.74,1.11,2.31,1.88c1.7,2.28,3.29,4.64,5.35,6.63c0.16,0.15,0.28,0.38,0.35,0.59c0.32,0.95,1.49,2.05,0.43,2.86
			c-1.4,1.07-2.78-0.31-3.12-1.29c-0.87-2.54-3.32-3.49-4.73-5.43c-4.33-5.96-10.05-10.66-14.99-16.07
			c-3.83-4.21-6.99-9.26-11.72-12.43c-2.37-1.59-2.21-4.1-3.96-5.75C437.02,410.77,438.85,410.55,440.03,410.13z"/>
		<path class="st0" d="M134.97,423.56c-0.79,1.3-1.35,3.34-2.66,4.13c-3.31,1.98-5.38,5.07-7.96,7.7c-2.73,2.78-5.3,5.77-8.32,8.19
			c-0.96,0.77-1.75,2.69-3.72,2.07c-0.63-0.2-0.81,0.6-1.09,1.01c-1.95,2.81-4.87,4.56-7.39,6.74c-0.27,0.24-0.65,0.34-0.98,0.52
			c-0.92,0.5-1.87,0.39-2.49-0.33c-0.74-0.86,0.4-1.56,0.77-1.83c3.23-2.36,5.36-5.89,8.72-8.12c1.16-0.77,2.07-1.94,3-3.01
			c1.24-1.43,2.47-2.85,4.03-3.97c2.4-1.73,3.79-4.46,6.3-6.16c2.22-1.51,3.78-3.86,5.7-5.7c1.13-1.08,2.81-2.03,4.42-2.71
			C134.32,421.64,134.84,422.28,134.97,423.56z"/>
		<path class="st0" d="M379.05,86.69c-1.86-0.11-2.26-1.01-1.57-2.03c1.55-2.29,2.03-5.12,3.64-7.32c1.51-2.07,2-4.55,3.19-6.7
			c1.95-3.5,3.23-7.35,5.59-10.63c0.29-0.41,0.48-0.99,0.49-1.49c0.04-2.39,2.29-3.18,3.42-4.77c0.32-0.46,1.22-0.91,1.85-0.39
			c0.57,0.48,0.58,1.2,0.55,2.04c-0.14,3.07-2.92,4.82-3.53,7.62c-0.51,2.32-2.38,4.19-2.31,6.72c0.01,0.52-0.29,0.89-0.65,1.15
			c-1.76,1.33-1.89,3.68-3.31,5.21c-2.52,2.72-3.62,6.32-5.8,9.25C380.12,86,379.55,86.67,379.05,86.69z"/>
		<path class="st0" d="M204.29,478.7c-0.22,1.87-0.19,3.54-1.87,4.76c-1.21,0.88-1.43,2.72-1.79,4c-0.58,2.06-2.58,3.67-2.03,6.07
			c0.04,0.18-0.1,0.48-0.26,0.61c-1.99,1.64-2.24,4.41-3.82,6.17c-2.36,2.65-3.9,5.74-5.73,8.69c-0.39,0.63-0.89,1.27-1.77,1.3
			c-0.53,0.02-1.14,0.11-1.51-0.34c-0.41-0.49-0.16-1.22,0.17-1.48c2.34-1.87,1.67-5.15,3.49-7.23c2.53-2.89,3.26-6.74,5.07-10.03
			c1.37-2.48,2.83-5.06,4.03-7.7c0.39-0.86,0.59-1.75,0.61-2.64c0.02-0.74,0.29-1.19,0.92-1.39c0.87-0.27,1.4-0.7,1.71-1.63
			c0.33-0.97,1.35-0.9,2.14-0.74C204.69,477.35,204.11,478.27,204.29,478.7z"/>
		<path class="st0" d="M555.19,276.14c-0.85-0.79-2.06-0.71-3.11-1.64c-1.2-1.06-3.35-0.96-5.07-1.32c-1.81-0.38-1.91-2.6-3.7-2.71
			c-0.13-0.01-0.06-0.53,0.25-0.73c0.58-0.39,1.31-0.92,1.89-0.6c2.06,1.12,4.56,0.42,6.52,1.7c0.76,0.49,1.59,0.49,2.4,0.62
			c3.54,0.58,7.11,1.06,10.48,2.39c0.35,0.14,0.8,0.31,1.1,0.2c2.4-0.91,3.28,1.75,5.12,2.23c0.64,0.17,0.24,1.69-0.55,2.01
			c-1.08,0.43-2.29,0.77-3.52,0.27c-2.7-1.09-5.51-1.61-8.43-1.28C557.25,277.45,556.67,275.72,555.19,276.14z"/>
		<path class="st0" d="M16.21,306.28c0.85-0.79,2.06-0.71,3.11-1.64c1.2-1.06,3.35-0.96,5.07-1.32c1.81-0.38,1.91-2.6,3.7-2.71
			c0.13-0.01,0.06-0.53-0.25-0.73c-0.58-0.39-1.31-0.92-1.89-0.6c-2.06,1.12-4.56,0.42-6.52,1.7c-0.76,0.49-1.59,0.49-2.4,0.62
			c-3.54,0.58-7.11,1.06-10.48,2.39c-0.35,0.14-0.8,0.31-1.1,0.2c-2.4-0.91-3.28,1.75-5.12,2.23c-0.64,0.17-0.24,1.69,0.55,2.01
			c1.08,0.43,2.29,0.77,3.52,0.27c2.7-1.09,5.51-1.61,8.43-1.28C14.15,307.6,14.73,305.86,16.21,306.28z"/>
		<path class="st0" d="M291.63,53.19c0.7,4.5,1.01,8.19,0.13,11.65c-0.62,2.44-0.35,4.86-0.85,7.23c-0.16,0.78-0.53,1.41-1.23,1.85
			c-1.29,0.82-2.31,0.43-2.07-1.02c0.41-2.46-0.69-4.94,0.46-7.44c0.44-0.96-0.51-2.48-0.5-3.74c0.03-2.94,0.24-5.87,0.42-8.81
			c0.03-0.48,0.06-0.92-0.2-1.32c-1.18-1.8,0.34-3.16,0.89-4.58c0.48-1.25,1.64-0.83,2.51,0.22
			C293.04,49.46,290.84,51.91,291.63,53.19z"/>
		<path class="st0" d="M369.01,109.81c0.92,2.01-1.29,2.73-1.79,4.18c-1.08,3.08-1.78,6.49-3.95,9.04
			c-1.94,2.28-3.29,4.91-5.09,7.25c-0.73,0.95-2.13,1.28-2.96,0.79c-0.84-0.49-0.07-1.6,0.36-2.4c2.02-3.68,4.03-7.45,5.58-11.28
			c1.04-2.56,3.42-4.59,3.37-7.73c-0.01-0.49,1.74-2.14,3.29-2.16C369.67,107.48,368.85,108.94,369.01,109.81z"/>
		<path class="st0" d="M226.48,434.3c-0.08,3.06-2.19,5.36-3.11,8.12c-0.55,1.63-1.4,3.28-2.27,4.87c-1.52,2.77-3.9,4.91-5.17,7.79
			c-0.08,0.19-0.36,0.29-0.5,0.46c-0.75,0.95-2.05,1.35-2.77,0.82c-0.66-0.49-0.01-1.71,0.32-2.67c0.97-2.86,2.81-5.27,3.94-8.08
			c1.06-2.67,2.51-5.34,3.98-7.91c0.83-1.45,1.18-3.18,2.69-4.19c0.69-0.46,1.38-1.04,2.27-0.74
			C226.53,433,226.6,433.65,226.48,434.3z"/>
		<path class="st0" d="M404.92,166.17c-0.38,0.05-0.8,0.14-0.91-0.38c-0.13-0.61-0.11-1.23,0.39-1.7c2.59-2.39,5.45-4.55,7.68-7.24
			c1.47-1.78,3.52-2.89,4.77-4.89c0.9-1.44,2.8-1.22,4.25-1.51c0.75-0.15,0.73,1.12,0.37,1.86c-1.04,2.2-2.98,3.66-4.45,5.51
			c-2.18,2.72-5.94,3.5-7.84,6.71C408.6,165.52,406.52,166.01,404.92,166.17z"/>
		<path class="st0" d="M163.48,396.19c-0.32,0.89,0.04,2.55-1.92,2.79c-0.2,0.02-0.36,0.46-0.54,0.69
			c-1.83,2.37-3.47,5.24-6.12,6.45c-2.85,1.3-4.5,4.43-8.02,4.66c-1.29,0.09-1.06-0.24-0.83-0.89c0.64-1.84,1.76-3.53,3.42-4.37
			c1.29-0.66,2.22-1.42,3.04-2.54c0.52-0.71,1.08-1.5,2.17-1.49c0.37,0,0.82-0.07,0.9-0.53c0.66-3.81,3.97-4.7,6.77-6.12
			C163.37,394.32,163.77,394.8,163.48,396.19z"/>
		<path class="st0" d="M291.06,539.87c-0.15-4.07,0.24-8.33-0.02-12.61c-0.06-0.94,0.93-2.9,2.55-2.64c1.29,0.21,1.9,1.45,1.75,3.05
			c-0.15,1.6-0.04,3.32,0.4,4.85c0.5,1.74,0.35,2.92-1.28,3.85c-0.94,0.53-1.57,1.44-1.95,2.43c-0.23,0.62-0.38,1.74,0.18,1.88
			c0.8,0.2,0.46-0.85,0.62-1.34c0.22-0.65,0.46-1.13,1.27-0.94c0.97,0.22,0.7,0.81,0.41,1.37c-0.45,0.86-0.33,1.93-1.13,2.69
			c-0.62,0.59-1.22,1.32-2.1,0.97c-0.81-0.32-0.78-1.21-0.72-2C291.09,540.99,291.06,540.53,291.06,539.87z"/>
	</g>
</g>
</svg>
