<?xml version="1.0" encoding="utf-8"?>
<!-- Generator: Adobe Illustrator 24.1.1, SVG Export Plug-In . SVG Version: 6.00 Build 0)  -->
<svg version="1.1" id="Layer_1" xmlns="http://www.w3.org/2000/svg" xmlns:xlink="http://www.w3.org/1999/xlink" x="0px" y="0px"
	 viewBox="0 0 588 712" style="enable-background:new 0 0 588 712;" xml:space="preserve">
<style type="text/css">
	.st0{fill:#EFB5D4;}
	.st1{fill:#FFE725;}
	.st2{clip-path:url(#SVGID_2_);}
</style>
<g>
	<rect x="0.7" y="0.8" class="st0" width="587.3" height="711.2"/>
	<circle class="st1" cx="291.8" cy="344" r="165.5"/>
	<g>
		<g>
			<g>
				<defs>
					<rect id="SVGID_1_" x="144.3" y="124.5" width="443" height="593.6"/>
				</defs>
				<clipPath id="SVGID_2_">
					<use xlink:href="#SVGID_1_"  style="overflow:visible;"/>
				</clipPath>
				<g class="st2">
					
						<image style="overflow:visible;enable-background:new    ;" width="1000" height="1219" id="anomaly-krf2UjxxTfs-unsplash.psd_2_" xlink:href="../../../../Google Drive/1st Molesey - Shared/Fundraising &amp; Grant Applications/Beer Festival/Marketing/Design Work/Website SVG Templates/6061DA83.png"  transform="matrix(0.479 0 0 0.479 148.2773 141.5192)">
					</image>
				</g>
			</g>
		</g>
	</g>
	<g>
		<path d="M159.1,511.8c0.1,2.5-1,5-3.2,7.7l-4.6-3.9c1.1-1.4,1.7-2.6,1.7-3.7c0.1-1-0.4-2-1.4-2.8c-0.9-0.8-1.9-1.1-2.8-0.9
			c-0.9,0.2-1.9,0.9-3,2.2c-0.9,1.1-1.4,2.1-1.4,3.1s0.3,2.3,1,3.8l1.2,2.4c1.1,2.3,1.5,4.4,1.3,6.2c-0.2,1.8-1.1,3.7-2.8,5.7
			c-2,2.3-4.2,3.6-6.7,3.8c-2.5,0.2-4.9-0.6-7.2-2.5c-2.2-1.9-3.4-4.1-3.5-6.5c-0.1-2.4,0.9-4.9,3-7.5l4.5,3.8
			c-1,1.3-1.6,2.4-1.7,3.3c-0.1,1,0.3,1.9,1.2,2.7c1.8,1.5,3.5,1.2,5.3-0.9c0.8-1,1.2-1.9,1.3-2.8c0-0.9-0.3-2.1-0.9-3.4l-1.1-2.3
			c-1.2-2.5-1.7-4.7-1.4-6.7c0.2-2,1.2-4.1,3-6.2c2.2-2.5,4.5-3.9,7-4.2c2.5-0.2,4.9,0.7,7.4,2.7C157.8,507,159,509.3,159.1,511.8z"
			/>
		<path d="M141.7,494.1c0.4,1.6,0.4,3.3-0.1,4.9c-0.5,1.6-1.4,3.1-2.8,4.5l-19.2,18.3l-4.4-4.6l19-18.2c1.1-1,1.6-1.9,1.7-2.8
			c0.1-0.9-0.2-1.7-1-2.5c-1.6-1.6-3.3-1.5-5.4,0.5l-19,18.2l-4.4-4.6l19.2-18.3c1.4-1.3,2.9-2.2,4.6-2.6c1.7-0.4,3.3-0.4,4.9,0.1
			c1.6,0.5,3.1,1.5,4.4,2.8C140.4,491,141.3,492.5,141.7,494.1z"/>
		<path d="M112.7,481.5l1.9,2.4l11.4-8.8l3.9,5.1l-28.5,21.8l-5.9-7.8c-2.1-2.8-3-5.3-2.5-7.5c0.5-2.2,2.2-4.4,5.1-6.7
			c1.9-1.5,3.7-2.4,5.4-2.8c1.7-0.4,3.3-0.3,4.8,0.4l9.1-13.7l4,5.3L112.7,481.5z M110,487.4l-2-2.6c-0.8-1-1.7-1.5-2.6-1.3
			c-1,0.1-2.1,0.7-3.4,1.7c-1.3,1-2.2,2-2.5,2.8c-0.4,0.9-0.2,1.8,0.6,2.9l2,2.6L110,487.4z"/>
		<path d="M98.8,461.3l1.6,2.6l12.3-7.5l3.3,5.5l-30.7,18.6l-5.1-8.4c-1.8-3-2.4-5.6-1.7-7.7c0.7-2.1,2.6-4.2,5.8-6.1
			c2-1.2,3.9-2,5.6-2.3c1.7-0.3,3.3,0,4.7,0.9l10.6-12.7l3.5,5.7L98.8,461.3z M95.5,466.8l-1.7-2.8c-0.7-1.1-1.5-1.6-2.5-1.6
			c-1,0-2.2,0.5-3.6,1.3c-1.4,0.9-2.4,1.7-2.8,2.5c-0.5,0.8-0.4,1.8,0.3,2.9l1.7,2.8L95.5,466.8z"/>
		<path d="M74.4,449.3l8.1-3.9l-3.6-7.5l5.2-2.5l3.6,7.5l8.7-4.2l-4.2-8.7l5.2-2.5l6.9,14.4L72,457.5l-6.9-14.4l5.2-2.5L74.4,449.3z
			"/>
		<path d="M79.1,418.9l13.1-4.8l2.2,6l-13.2,4.9l-17.9,14.4l-2.4-6.6l11.7-8l-14.1,1.5l-2.5-6.6L79.1,418.9z"/>
		<path d="M55.2,416.1l-1.7-5.6l10.1-2.9l6.2,4.3L55.2,416.1z"/>
		<path d="M84.4,396.6c-1.4,2-3.8,3.4-7.2,4.2l-1.3-5.9c1.7-0.4,2.9-1.1,3.6-1.9s0.9-1.8,0.6-3c-0.3-1.2-0.8-2-1.7-2.4
			c-0.9-0.4-2.1-0.4-3.7-0.1c-1.4,0.3-2.4,0.8-3,1.6c-0.7,0.8-1.2,2-1.5,3.7l-0.5,2.6c-0.5,2.5-1.4,4.4-2.7,5.7
			c-1.3,1.3-3.2,2.3-5.7,2.8c-2.9,0.6-5.5,0.3-7.6-1c-2.1-1.3-3.5-3.5-4.1-6.4c-0.6-2.9-0.2-5.3,1.2-7.3c1.4-2,3.7-3.3,7-4.2
			l1.2,5.7c-1.6,0.4-2.7,0.9-3.4,1.6c-0.7,0.7-0.9,1.7-0.6,2.9c0.5,2.3,2.1,3.1,4.8,2.5c1.2-0.3,2.1-0.8,2.7-1.5
			c0.6-0.7,1.1-1.8,1.3-3.2l0.5-2.5c0.6-2.7,1.5-4.7,2.9-6.2c1.4-1.5,3.4-2.5,6.1-3.1c3.3-0.7,5.9-0.4,8.1,0.9
			c2.1,1.3,3.5,3.5,4.2,6.6C86.3,392,85.9,394.6,84.4,396.6z"/>
		<path d="M51,363.8l9.1-0.7l-0.6-8.3l5.8-0.4l0.6,8.3l15.1-1.2l0.5,6.4l-35.8,2.8l-1.2-16l5.8-0.4L51,363.8z"/>
		<path d="M44.5,349.3l0-6.3l35.9-0.3l0,6.3L44.5,349.3z"/>
		<path d="M45.9,315.9l35.8,2.6l-0.5,6.4L61.6,331l19.1,1.4l-0.5,6.4l-35.8-2.6l0.5-6.4l20.5-6l-19.9-1.5L45.9,315.9z"/>
		<path d="M53.6,304l8.9,1.5l1.4-8.2l5.6,0.9l-1.4,8.2l9.5,1.6l1.6-9.5l5.6,0.9l-2.6,15.8l-35.4-5.8l2.6-15.8l5.7,0.9L53.6,304z"/>
		<path d="M83.7,294.8c-2.2,1.1-5,1.2-8.3,0.4l1.6-5.8c1.7,0.4,3.1,0.4,4,0c1-0.4,1.6-1.2,1.9-2.4c0.3-1.2,0.2-2.2-0.4-2.9
			c-0.6-0.8-1.7-1.3-3.3-1.8c-1.3-0.4-2.5-0.3-3.4,0.1c-1,0.4-2,1.3-3,2.5l-1.7,2.1c-1.6,2-3.3,3.2-5,3.8c-1.7,0.6-3.8,0.5-6.3-0.1
			c-2.9-0.8-5-2.3-6.3-4.4c-1.3-2.2-1.5-4.7-0.7-7.6c0.8-2.8,2.2-4.8,4.4-5.9s4.9-1.2,8.1-0.5l-1.5,5.7c-1.6-0.4-2.8-0.4-3.8-0.1
			c-0.9,0.3-1.6,1.1-1.9,2.3c-0.6,2.2,0.4,3.7,3,4.4c1.2,0.3,2.2,0.3,3.1,0c0.9-0.4,1.8-1.1,2.7-2.3l1.6-2c1.7-2.1,3.5-3.5,5.4-4.1
			c1.9-0.6,4.2-0.6,6.9,0.1c3.2,0.9,5.5,2.4,6.7,4.5c1.3,2.1,1.5,4.8,0.7,7.8C87.4,291.6,85.9,293.7,83.7,294.8z"/>
		<path d="M69.1,249.9l-2.2,5.8l28.2,10.6l-2.2,5.9l-28.2-10.6l-2.2,5.8l-5.4-2l6.6-17.6L69.1,249.9z"/>
		<path d="M100.8,247.9c-2.4,0.7-5.1,0.3-8-1.3l-14.2-7.8c-3-1.6-4.8-3.7-5.4-6.2c-0.6-2.5-0.2-5.1,1.3-7.9c1.4-2.6,3.4-4.3,5.8-5.1
			c2.4-0.8,5.2-0.3,8.3,1.4l1,0.5l-3.1,5.6l-0.9-0.5c-1.4-0.8-2.6-1.1-3.7-0.8c-1,0.2-1.8,0.8-2.3,1.8c-0.6,1.2-0.7,2.3-0.2,3.3
			c0.5,1,1.6,1.9,3.3,2.8l12.6,6.9c3.1,1.7,5.2,1.4,6.5-0.8c0.5-1,0.6-2,0.3-3c-0.4-1-1.2-1.8-2.6-2.6l-0.8-0.5l3-5.6l0.9,0.5
			c3,1.7,4.9,3.8,5.5,6.3c0.6,2.5,0.2,5.1-1.3,7.8C105.2,245.4,103.2,247.1,100.8,247.9z"/>
		<path d="M106.6,214.7l-1.8,2.5l11.8,8.3l-3.7,5.2l-29.4-20.6l5.6-8c2-2.9,4.2-4.5,6.4-4.7c2.2-0.2,4.9,0.7,8,2.9
			c2,1.4,3.4,2.8,4.3,4.2c0.9,1.5,1.3,3,1.1,4.7l15.8,4.6l-3.8,5.4L106.6,214.7z M100.2,214l1.9-2.7c0.7-1,0.9-2,0.5-2.9
			c-0.4-0.9-1.3-1.8-2.7-2.8c-1.4-1-2.5-1.5-3.5-1.6c-1-0.1-1.8,0.4-2.6,1.5l-1.9,2.7L100.2,214z"/>
		<path d="M130.7,196.5l-5.5,6.3l4.3,5.7l-4.4,5l-20.8-30.7l4.1-4.7l32.9,16.9l-4.4,5L130.7,196.5z M125.7,193.5l-12.9-7.4l8.9,11.9
			L125.7,193.5z"/>
		<path d="M126.9,167.6l6.2,6.7l6.1-5.6l3.9,4.2l-6.1,5.6l10.3,11.1l-4.7,4.3l-24.4-26.3l11.8-10.9l3.9,4.2L126.9,167.6z"/>
		<path d="M151.2,147.5l-4.9,3.8l18.4,23.8l-5,3.9l-18.4-23.8l-4.9,3.8l-3.5-4.6l14.8-11.5L151.2,147.5z"/>
		<path d="M186.5,142.5c1.2,0.9,2.3,2.3,3.4,4.2c1.8,3.2,2.5,5.8,2,8s-2.3,4.1-5.4,5.9l-8.4,4.8l-17.9-31.1l8.4-4.8
			c3-1.7,5.6-2.3,7.6-1.7c2.1,0.6,3.9,2.4,5.6,5.3c0.9,1.5,1.4,3,1.5,4.4c0.1,1.4-0.3,2.7-1.2,4C184,141.3,185.4,141.6,186.5,142.5z
			 M168.6,136.2l4.3,7.5l2.3-1.3c1.3-0.7,2-1.6,2.2-2.4c0.2-0.9-0.1-2-0.9-3.3c-0.8-1.4-1.6-2.2-2.5-2.5c-0.8-0.3-1.9,0-3.2,0.7
			L168.6,136.2z M185.4,153.4c0.1-1-0.3-2.3-1.2-3.9c-0.9-1.6-1.8-2.5-2.8-2.9c-1-0.4-2.1-0.2-3.4,0.6l-2.3,1.3l5.1,8.9l2.3-1.3
			C184.5,155.3,185.2,154.4,185.4,153.4z"/>
		<path d="M191.5,124.3l3.7,8.2l7.6-3.4l2.4,5.2l-7.6,3.4l4,8.8l8.8-4l2.4,5.2l-14.6,6.6l-14.7-32.7l14.6-6.6l2.4,5.3L191.5,124.3z"
			/>
		<path d="M211.3,116.3l3,8.5l7.9-2.7l1.9,5.4l-7.9,2.7l3.2,9.1l9.1-3.2l1.9,5.4l-15.1,5.3l-11.8-33.9l15.1-5.3l1.9,5.5L211.3,116.3
			z"/>
		<path d="M238.7,124.5l-3,0.7l3.4,14l-6.2,1.5l-8.4-34.9l9.5-2.3c3.4-0.8,6.1-0.6,7.9,0.7c1.8,1.3,3.2,3.8,4.1,7.4
			c0.6,2.3,0.7,4.3,0.4,6c-0.3,1.7-1,3.1-2.3,4.2l8.9,13.9l-6.5,1.6L238.7,124.5z M234.4,119.7l3.2-0.8c1.2-0.3,2-0.9,2.3-1.9
			c0.3-0.9,0.2-2.2-0.2-3.8s-0.9-2.8-1.6-3.5c-0.6-0.7-1.6-0.9-2.9-0.6l-3.2,0.8L234.4,119.7z"/>
		<path d="M256.3,133.1c-1.9-1.6-3.1-4.1-3.6-7.5l6-0.8c0.3,1.7,0.8,3,1.6,3.7c0.7,0.7,1.7,1,3,0.9c1.2-0.2,2.1-0.7,2.6-1.5
			c0.5-0.8,0.6-2.1,0.4-3.7c-0.2-1.4-0.6-2.4-1.4-3.1c-0.7-0.7-1.9-1.3-3.5-1.8l-2.6-0.8c-2.4-0.7-4.3-1.8-5.5-3.2
			c-1.2-1.4-2-3.3-2.3-5.9c-0.4-3,0.2-5.5,1.7-7.5c1.5-2,3.7-3.2,6.7-3.6c2.9-0.4,5.3,0.2,7.1,1.8c1.8,1.6,3,4,3.6,7.3l-5.8,0.8
			c-0.2-1.6-0.7-2.8-1.3-3.5c-0.6-0.7-1.6-1-2.8-0.9c-2.3,0.3-3.3,1.8-2.9,4.5c0.2,1.2,0.6,2.2,1.2,2.9c0.7,0.7,1.7,1.2,3.1,1.6
			l2.5,0.7c2.6,0.8,4.6,1.9,5.9,3.4s2.2,3.6,2.5,6.4c0.4,3.3-0.1,6-1.6,8c-1.5,2-3.8,3.2-7,3.6C260.7,135.3,258.2,134.7,256.3,133.1
			z"/>
		<path d="M275.6,126.3l5.9-0.4l0.6,10.5l-5.6,5.1L275.6,126.3z"/>
		<path d="M308.6,126.3l-8.4-0.5l-1.9,6.9l-6.6-0.4L303.1,97l6.2,0.4l7,36.4l-6.6-0.4L308.6,126.3z M307.8,120.5l-2.1-14.7
			l-3.9,14.4L307.8,120.5z"/>
		<path d="M323.7,98.8l6.3,1l-4.8,29.8l9.5,1.5l-0.9,5.6l-15.8-2.5L323.7,98.8z"/>
		<path d="M349.4,109.6l-2.2,8.7l8.1,2l-1.4,5.5l-8.1-2l-2.4,9.4l9.4,2.4l-1.4,5.5l-15.5-3.9l8.7-34.8l15.5,3.9l-1.4,5.6
			L349.4,109.6z"/>
		<path d="M355.7,135.3l5.6,1.8l-3.2,10l-7,2.7L355.7,135.3z"/>
		<path d="M373.5,146.6c-0.9-2.3-0.7-5,0.7-8.1l6.7-14.7c1.4-3.1,3.3-5,5.8-5.8s5.1-0.6,8,0.7c2.7,1.2,4.6,3,5.5,5.3
			c1,2.3,0.8,5-0.6,8l-0.5,1l-5.8-2.7l0.5-1c0.6-1.3,0.7-2.4,0.4-3.3s-1-1.7-2-2.1c-1.2-0.6-2.3-0.5-3.3,0.1
			c-0.9,0.6-1.8,1.8-2.6,3.5l-6,13.1c-1.5,3.2-1,5.3,1.3,6.4c1.1,0.5,2.2,0.5,3.1,0s1.7-1.5,2.4-2.9l1.6-3.5l-3.5-1.6l2.1-4.6
			l9.3,4.2l-3.8,8.4c-1.4,3-3.3,4.9-5.8,5.8c-2.5,0.8-5.1,0.6-7.9-0.7C376.3,150.7,374.5,148.9,373.5,146.6z"/>
		<path d="M409.3,126.5l5.5,3.1l-17.5,31.3l-5.5-3.1L409.3,126.5z"/>
		<path d="M437.7,144.2l-20,29.8l-5.3-3.6l4.4-20.1l-10.6,15.9l-5.3-3.6l20-29.8l5.3,3.6l-4.9,20.8l11.1-16.6L437.7,144.2z"/>
		<path d="M424.2,170.5l4.6,3.6l-6.5,8.3l-7.5,0.1L424.2,170.5z"/>
		<path d="M437,187.3c0-2.5,1.1-5,3.5-7.3l11.4-11.5c2.4-2.4,4.9-3.6,7.5-3.5s5,1.3,7.2,3.5c2.1,2.1,3.2,4.4,3.3,6.9s-1.1,5-3.6,7.5
			l-0.8,0.8l-4.5-4.5l0.7-0.7c1.1-1.2,1.8-2.2,1.8-3.3c0.1-1-0.3-1.9-1.1-2.8c-1-1-2-1.3-3.1-1.1c-1.1,0.2-2.3,1-3.6,2.3L445.5,184
			c-2.5,2.5-2.8,4.6-1,6.4c0.8,0.8,1.7,1.2,2.8,1.1s2.1-0.7,3.2-1.8l0.7-0.7l4.5,4.5l-0.7,0.7c-2.4,2.5-5,3.6-7.6,3.5
			c-2.6-0.1-5-1.2-7.1-3.4C438.2,192.2,437,189.8,437,187.3z"/>
		<path d="M477.5,180.9l4.1,4.8L454.4,209l-4.1-4.8L477.5,180.9z"/>
		<path d="M486,190.9l5.8,8c1.8,2.4,2.5,4.9,2.2,7.4c-0.3,2.5-1.9,4.7-4.6,6.7l-12.4,9c-2.7,2-5.4,2.7-7.9,2.2
			c-2.5-0.5-4.7-2-6.5-4.5l-5.6-7.8L486,190.9z M467.4,216.5c0.7,1,1.6,1.5,2.8,1.4c1.1,0,2.4-0.5,3.7-1.5l10.9-7.9
			c1.5-1.1,2.4-2.1,2.8-3.2c0.4-1.1,0.2-2.1-0.5-3.1l-2-2.8l-19.7,14.3L467.4,216.5z"/>
		<path d="M499.6,221.2l-7.8,4.5l4.2,7.2l-4.9,2.9l-4.2-7.2l-8.3,4.9l4.9,8.3l-4.9,2.9l-8.1-13.8l31-18.1l8.1,13.8l-5,2.9
			L499.6,221.2z"/>
		<path d="M496.8,249.6l-1.3-2.8l-13.1,6l-2.7-5.8l32.6-15l4.1,8.9c1.5,3.2,1.8,5.8,0.8,7.9c-0.9,2-3.1,3.9-6.5,5.4
			c-2.2,1-4.1,1.5-5.8,1.6c-1.7,0.1-3.3-0.4-4.6-1.4l-11.9,11.4l-2.8-6L496.8,249.6z M500.7,244.4l1.4,3c0.5,1.2,1.3,1.8,2.3,1.9
			c1,0.1,2.2-0.2,3.7-0.9c1.5-0.7,2.5-1.4,3.1-2.2c0.6-0.8,0.6-1.8,0-3l-1.4-3L500.7,244.4z"/>
		<path d="M502.9,288.3l-2.3-8.1l-7.1,0.5l-1.8-6.4l37-1l1.7,6l-32,18.6l-1.8-6.4L502.9,288.3z M508.1,285.6l13.2-6.9l-14.8,1.1
			L508.1,285.6z"/>
		<path d="M537.3,313.7l-35.4,5.9l-1-6.3l17.7-10.5l-18.9,3.1l-1-6.3l35.4-5.9l1,6.3l-18.5,10.6l19.7-3.3L537.3,313.7z"/>
		<path d="M538.1,321l0.5,9.9c0.2,3-0.6,5.5-2.2,7.4c-1.6,1.9-4.2,3-7.5,3.1l-15.3,0.8c-3.4,0.2-6-0.6-7.8-2.5
			c-1.8-1.8-2.9-4.2-3-7.3l-0.5-9.6L538.1,321z M508.5,332.4c0.1,1.2,0.6,2.1,1.5,2.7c1,0.6,2.3,0.8,3.9,0.8l13.4-0.7
			c1.8-0.1,3.2-0.5,4.1-1.2c0.9-0.7,1.3-1.6,1.3-2.9l-0.2-3.4l-24.4,1.3L508.5,332.4z"/>
		<path d="M536,383.8l-35.7-4l0.7-6.4l20.9,2.3l-13.4-6.1l0.4-3.4l14.3-3l-20.7-2.3l0.7-6.4l35.7,4l-0.7,6.4l-19.5,4.1l18.1,8.4
			L536,383.8z"/>
		<path d="M501.2,386c2.1-1.4,4.8-1.6,8.1-0.9l15.7,3.7c3.3,0.8,5.6,2.3,6.9,4.6s1.5,4.9,0.8,7.9c-0.7,2.9-2.1,5.1-4.2,6.5
			c-2.1,1.4-4.8,1.7-8.1,0.9l-15.7-3.7c-3.2-0.8-5.5-2.3-6.8-4.6s-1.6-4.9-0.9-7.9C497.7,389.5,499.1,387.4,501.2,386z M503.2,397.1
			c0.7,0.8,1.9,1.4,3.5,1.8l14,3.3c1.8,0.4,3.2,0.4,4.3,0.1c1.1-0.4,1.8-1.2,2-2.4c0.3-1.3,0.1-2.4-0.7-3.2
			c-0.8-0.8-2.1-1.4-3.9-1.9l-14-3.3c-3.4-0.8-5.4,0-6,2.5C502.3,395.3,502.5,396.3,503.2,397.1z"/>
		<path d="M504.5,419.5l1-2.9l-13.6-4.8l2.1-6l33.8,12l-3.3,9.2c-1.2,3.3-2.8,5.4-4.9,6.2c-2.1,0.8-4.9,0.6-8.4-0.7
			c-2.3-0.8-4-1.8-5.3-2.9c-1.3-1.2-2-2.6-2.3-4.2l-16.5-0.2l2.2-6.3L504.5,419.5z M510.9,418.6l-1.1,3.1c-0.4,1.2-0.3,2.2,0.3,2.9
			c0.6,0.7,1.7,1.4,3.3,1.9c1.6,0.6,2.8,0.8,3.8,0.6c0.9-0.2,1.6-0.9,2.1-2.1l1.1-3.1L510.9,418.6z"/>
		<path d="M510.6,446l-8.1-3.8l-3.5,7.5l-5.2-2.4l3.5-7.5l-8.7-4.1l-4.1,8.7l-5.2-2.4l6.8-14.5l32.5,15.3l-6.8,14.5l-5.2-2.5
			L510.6,446z"/>
		<path d="M483.4,447.9l-2.8,4.9l-5.8-3.2l2.8-4.9L483.4,447.9z M509.1,461.9l-3.2,5.7l-20.7-13l2-3.5L509.1,461.9z"/>
	</g>
</g>
</svg>
